<?xml version="1.0" encoding="UTF-8" standalone="no"?>
<!DOCTYPE svg PUBLIC "-//W3C//DTD SVG 1.1//EN" "http://www.w3.org/Graphics/SVG/1.1/DTD/svg11.dtd">
<svg width="100%" height="100%" viewBox="0 0 1500 1000" version="1.1" xmlns="http://www.w3.org/2000/svg" xmlns:xlink="http://www.w3.org/1999/xlink" xml:space="preserve" xmlns:serif="http://www.serif.com/" style="fill-rule:evenodd;clip-rule:evenodd;stroke-linejoin:round;stroke-miterlimit:1.41421;">
    <g transform="matrix(1,0,0,1,52.25,-50.25)">
        <g transform="matrix(-6.73118e-05,-1.14954,1.14954,-6.73118e-05,-271.367,1576.83)">
            <path d="M1219,593C1219,412.955 1073.05,267 893,267C835.775,267 779.558,282.063 730,310.676L808.762,447.095C834.373,432.308 863.426,424.523 893,424.523C986.047,424.523 1061.48,499.953 1061.48,593L1219,593Z" style="fill:rgb(47,17,46);"/>
        </g>
        <g transform="matrix(-6.73118e-05,-1.14954,1.14954,-6.73118e-05,-271.367,1576.83)">
            <path d="M662.483,362.483C601.346,423.62 567,506.539 567,593C567,772.924 713.076,919 893,919C1073.05,919 1219,773.045 1219,593L1061.48,593C1061.48,686.047 986.047,761.477 893,761.477C800.015,761.477 724.523,685.985 724.523,593C724.523,548.317 742.273,505.464 773.869,473.869L662.483,362.483Z" style="fill:rgb(130,3,51);"/>
        </g>
        <g transform="matrix(-6.73118e-05,-1.14954,1.14954,-6.73118e-05,-271.367,1576.83)">
            <path d="M730,310.676C705.327,324.921 682.628,342.338 662.483,362.483L773.869,473.869C784.28,463.458 796.011,454.457 808.762,447.095L730,310.676Z" style="fill:rgb(240,67,58);"/>
        </g>
        <g transform="matrix(1,0,0,1,-229.386,-6.45064)">
            <text x="315.103px" y="456.84px" style="font-family:'NunitoSans-Black', 'Nunito Sans';font-weight:900;font-size:48px;fill:white;">33.3%</text>
        </g>
        <g transform="matrix(1,0,0,1,-199.606,293.651)">
            <text x="315.103px" y="456.84px" style="font-family:'NunitoSans-Black', 'Nunito Sans';font-weight:900;font-size:48px;fill:white;">4.2%</text>
        </g>
        <g transform="matrix(1,0,0,1,-274.016,-62.914)">
            <text x="880px" y="528.34px" style="font-family:'NunitoSans-Black', 'Nunito Sans';font-weight:900;font-size:48px;fill:rgb(255,252,252);">62.4%</text>
        </g>
    </g>
    <g transform="matrix(1,0,0,1,143,93.7995)">
        <g transform="matrix(1,0,0,1,-180,-34.599)">
            <rect x="1064" y="256" width="101" height="91" style="fill:rgb(130,3,51);"/>
        </g>
        <g transform="matrix(1,0,0,1,-180,107.651)">
            <rect x="1064" y="256" width="101" height="91" style="fill:rgb(47,17,46);"/>
        </g>
        <g transform="matrix(1,0,0,1,137.234,-258.354)">
            <g>
                <text x="880px" y="519.88px" style="font-family:'NunitoSans-Black', 'Nunito Sans';font-weight:900;font-size:36px;">CHAR<tspan x="985.012px 1011.8px 1032.93px " y="519.88px 519.88px 519.88px ">GES</tspan></text>
                <text x="880px" y="555.88px" style="font-family:'NunitoSans-Black', 'Nunito Sans';font-weight:900;font-size:36px;">DISMISSED</text>
            </g>
        </g>
        <g transform="matrix(1,0,0,1,137.234,-97.7263)">
            <text x="880px" y="519.88px" style="font-family:'NunitoSans-Black', 'Nunito Sans';font-weight:900;font-size:36px;">A<tspan x="906.712px " y="519.88px ">Q</tspan>UITTED</text>
        </g>
        <g transform="matrix(1,0,0,1,137.234,38.1227)">
            <text x="880px" y="519.88px" style="font-family:'NunitoSans-Black', 'Nunito Sans';font-weight:900;font-size:36px;">P<tspan x="901.672px " y="519.88px ">A</tspan>RDONED</text>
        </g>
        <g transform="matrix(1,0,0,1,-180,244)">
            <rect x="1064" y="256" width="101" height="91" style="fill:rgb(240,67,58);"/>
        </g>
    </g>
</svg>
