<?xml version="1.0" encoding="UTF-8" standalone="no"?>
<!DOCTYPE svg PUBLIC "-//W3C//DTD SVG 1.1//EN" "http://www.w3.org/Graphics/SVG/1.1/DTD/svg11.dtd">
<svg width="100%" height="100%" viewBox="0 0 1400 600" version="1.1" xmlns="http://www.w3.org/2000/svg" xmlns:xlink="http://www.w3.org/1999/xlink" xml:space="preserve" xmlns:serif="http://www.serif.com/" style="fill-rule:evenodd;clip-rule:evenodd;stroke-linejoin:round;stroke-miterlimit:1.5;">
    <g transform="matrix(1,0,0,1,-23.3649,-2)">
        <g transform="matrix(1.57095,0,0,0.0614657,108.692,490.196)">
            <rect x="71" y="98" width="667" height="423" style="fill:rgb(235,235,235);"/>
        </g>
        <g transform="matrix(1,0,0,1,-15,70.3901)">
            <g>
                <g>
                    <g transform="matrix(1.3653,0,0,1.3653,116.31,-186.338)">
                        <g transform="matrix(-0.21598,0.976398,-0.976398,-0.21598,466.887,270.501)">
                            <path d="M184,284L84,284L89.175,270L159,270L184,284Z" style="fill:rgb(240,222,58);"/>
                        </g>
                        <g transform="matrix(0.195548,0.980694,-0.980694,0.195548,396.091,149.724)">
                            <path d="M184,284L84,284L89.175,270L159,270L184,284Z" style="fill:rgb(240,229,58);"/>
                        </g>
                        <g transform="matrix(-0.195548,0.980694,0.980694,0.195548,-139.325,149.724)">
                            <path d="M184,284L84,284L89.175,270L159,270L184,284Z" style="fill:rgb(217,178,26);"/>
                        </g>
                        <g transform="matrix(-0.195548,0.980694,1.05527,0.210418,-138.536,156.991)">
                            <path d="M184,284L84,284L89.175,270L159,270L184,284Z" style="fill:rgb(240,229,58);"/>
                        </g>
                        <g transform="matrix(-0.102268,-0.994757,1.0704,-0.110045,-185.591,501.925)">
                            <path d="M184,284L84,284L87.487,270L184,270L184,284Z" style="fill:rgb(240,229,58);"/>
                        </g>
                        <g transform="matrix(0.102268,-0.994757,-1.0704,-0.110045,439.214,494.499)">
                            <path d="M184,284L84,284L87.487,270L184,270L184,284Z" style="fill:rgb(217,178,26);"/>
                        </g>
                        <g transform="matrix(-0.556037,-0.831157,-0.894361,0.598319,426.428,297.864)">
                            <path d="M184,284L84,284L87.487,270L184,270L184,284Z" style="fill:rgb(240,222,58);"/>
                        </g>
                        <g transform="matrix(0.193953,-0.981011,-0.9093,-0.179775,337.848,531.562)">
                            <path d="M184,284L84,284L87.487,270L173.439,270L184,284Z" style="fill:rgb(240,222,58);"/>
                        </g>
                        <g transform="matrix(-0.121668,0.992571,0.920015,0.112774,-101.212,188.514)">
                            <path d="M184,284L84,284L87.487,270L184,270L184,284Z" style="fill:rgb(240,222,58);"/>
                        </g>
                        <g transform="matrix(-0.341102,0.940026,0.730488,0.265068,12.3854,159.215)">
                            <path d="M184,284L84,284L87.487,270L184,270L184,284Z" style="fill:rgb(217,178,26);"/>
                        </g>
                        <g transform="matrix(0.803927,2.67761e-17,-1.30778e-17,-0.91491,18.2346,758.267)">
                            <path d="M204,443L84,443L96.445,340L191.714,340L204,443Z" style="fill:rgb(240,67,58);"/>
                        </g>
                        <g transform="matrix(0.571313,1.90285e-17,-1.30778e-17,-0.91491,37.7741,758.267)">
                            <path d="M84,443L110.246,443L122.691,340L96.445,340L84,443Z" style="fill:rgb(229,59,53);"/>
                        </g>
                        <g transform="matrix(1,0,0,1,12.394,6.93193)">
                            <ellipse cx="121.606" cy="350.089" rx="27.136" ry="19.645" style="fill:rgb(240,67,58);"/>
                        </g>
                    </g>
                    <g transform="matrix(1,0,0,1,176.675,-22)">
                        <g>
                            <path d="M34.991,163.92L34.991,147L46.079,147L46.079,149.472L38.039,149.472L38.039,154.08L45.599,154.08L45.599,156.552L38.039,156.552L38.039,163.92L34.991,163.92Z" style="fill-rule:nonzero;"/>
                            <path d="M62.759,163.92L59.399,163.92L56.495,158.52C56.223,158.008 55.887,157.648 55.487,157.44C55.087,157.232 54.583,157.128 53.975,157.128L51.623,157.128L51.623,163.92L48.575,163.92L48.575,147L56.063,147C57.983,147 59.443,147.428 60.443,148.284C61.443,149.14 61.943,150.376 61.943,151.992C61.943,153.288 61.579,154.356 60.851,155.196C60.123,156.036 59.095,156.584 57.767,156.84C58.663,157.08 59.383,157.712 59.927,158.736L62.759,163.92ZM58.199,154.092C58.743,153.652 59.015,152.976 59.015,152.064C59.015,151.136 58.743,150.46 58.199,150.036C57.655,149.612 56.799,149.4 55.631,149.4L51.599,149.4L51.599,154.752L55.631,154.752C56.799,154.752 57.655,154.532 58.199,154.092Z" style="fill-rule:nonzero;"/>
                            <path d="M65.255,163.92L65.255,147L76.583,147L76.583,149.448L68.279,149.448L68.279,154.104L76.103,154.104L76.103,156.528L68.279,156.528L68.279,161.472L76.583,161.472L76.583,163.92L65.255,163.92Z" style="fill-rule:nonzero;"/>
                            <path d="M90.767,147L93.671,147L93.671,163.92L91.343,163.92L82.271,152.112L82.271,163.92L79.391,163.92L79.391,147L81.695,147L90.767,158.784L90.767,147Z" style="fill-rule:nonzero;"/>
                            <path d="M100.643,163.068C99.403,162.356 98.451,161.344 97.787,160.032C97.123,158.72 96.791,157.192 96.791,155.448C96.791,153.704 97.123,152.18 97.787,150.876C98.451,149.572 99.403,148.564 100.643,147.852C101.883,147.14 103.335,146.784 104.999,146.784C106.135,146.784 107.207,146.96 108.215,147.312C109.223,147.664 110.071,148.16 110.759,148.8L109.727,151.056C108.959,150.448 108.199,150.004 107.447,149.724C106.695,149.444 105.895,149.304 105.047,149.304C103.415,149.304 102.155,149.832 101.267,150.888C100.379,151.944 99.935,153.464 99.935,155.448C99.935,157.448 100.379,158.976 101.267,160.032C102.155,161.088 103.415,161.616 105.047,161.616C105.895,161.616 106.695,161.476 107.447,161.196C108.199,160.916 108.959,160.472 109.727,159.864L110.759,162.12C110.071,162.76 109.223,163.256 108.215,163.608C107.207,163.96 106.135,164.136 104.999,164.136C103.335,164.136 101.883,163.78 100.643,163.068Z" style="fill-rule:nonzero;"/>
                            <path d="M125.303,147L128.327,147L128.327,163.92L125.303,163.92L125.303,156.576L116.639,156.576L116.639,163.92L113.591,163.92L113.591,147L116.639,147L116.639,154.08L125.303,154.08L125.303,147Z" style="fill-rule:nonzero;"/>
                            <path d="M138.479,163.92L138.479,147L149.567,147L149.567,149.472L141.527,149.472L141.527,154.08L149.087,154.08L149.087,156.552L141.527,156.552L141.527,163.92L138.479,163.92Z" style="fill-rule:nonzero;"/>
                            <path d="M166.247,163.92L162.887,163.92L159.983,158.52C159.711,158.008 159.375,157.648 158.975,157.44C158.575,157.232 158.071,157.128 157.463,157.128L155.111,157.128L155.111,163.92L152.063,163.92L152.063,147L159.551,147C161.471,147 162.931,147.428 163.931,148.284C164.931,149.14 165.431,150.376 165.431,151.992C165.431,153.288 165.067,154.356 164.339,155.196C163.611,156.036 162.583,156.584 161.255,156.84C162.151,157.08 162.871,157.712 163.415,158.736L166.247,163.92ZM161.687,154.092C162.231,153.652 162.503,152.976 162.503,152.064C162.503,151.136 162.231,150.46 161.687,150.036C161.143,149.612 160.287,149.4 159.119,149.4L155.087,149.4L155.087,154.752L159.119,154.752C160.287,154.752 161.143,154.532 161.687,154.092Z" style="fill-rule:nonzero;"/>
                            <rect x="168.743" y="147" width="3.096" height="16.92" style="fill-rule:nonzero;"/>
                            <path d="M175.487,163.92L175.487,147L186.815,147L186.815,149.448L178.511,149.448L178.511,154.104L186.335,154.104L186.335,156.528L178.511,156.528L178.511,161.472L186.815,161.472L186.815,163.92L175.487,163.92Z" style="fill-rule:nonzero;"/>
                            <path d="M191.471,163.608C190.335,163.256 189.375,162.76 188.591,162.12L189.623,159.864C190.439,160.488 191.299,160.944 192.203,161.232C193.107,161.52 194.087,161.664 195.143,161.664C196.311,161.664 197.211,161.46 197.843,161.052C198.475,160.644 198.791,160.072 198.791,159.336C198.791,158.696 198.499,158.208 197.915,157.872C197.331,157.536 196.359,157.216 194.999,156.912C193.591,156.608 192.447,156.256 191.567,155.856C190.687,155.456 190.023,154.944 189.575,154.32C189.127,153.696 188.903,152.904 188.903,151.944C188.903,150.952 189.175,150.064 189.719,149.28C190.263,148.496 191.031,147.884 192.023,147.444C193.015,147.004 194.159,146.784 195.455,146.784C196.639,146.784 197.767,146.964 198.839,147.324C199.911,147.684 200.791,148.176 201.479,148.8L200.447,151.056C198.943,149.856 197.279,149.256 195.455,149.256C194.367,149.256 193.507,149.476 192.875,149.916C192.243,150.356 191.927,150.968 191.927,151.752C191.927,152.408 192.207,152.912 192.767,153.264C193.327,153.616 194.279,153.944 195.623,154.248C197.047,154.568 198.203,154.924 199.091,155.316C199.979,155.708 200.659,156.208 201.131,156.816C201.603,157.424 201.839,158.192 201.839,159.12C201.839,160.128 201.571,161.012 201.035,161.772C200.499,162.532 199.723,163.116 198.707,163.524C197.691,163.932 196.495,164.136 195.119,164.136C193.823,164.136 192.607,163.96 191.471,163.608Z" style="fill-rule:nonzero;"/>
                            <path d="M88.067,187.068C87.619,185.3 87.395,183.48 87.395,181.608C87.395,179.736 87.619,177.92 88.067,176.16C88.515,174.4 89.251,172.568 90.275,170.664L91.619,171.216C90.819,173.104 90.247,174.888 89.903,176.568C89.559,178.248 89.387,179.928 89.387,181.608C89.387,183.288 89.559,184.968 89.903,186.648C90.247,188.328 90.819,190.112 91.619,192L90.275,192.552C89.251,190.664 88.515,188.836 88.067,187.068Z" style="fill-rule:nonzero;"/>
                            <path d="M104.267,180.708C104.795,181.404 105.059,182.28 105.059,183.336C105.059,184.808 104.559,185.968 103.559,186.816C102.559,187.664 101.203,188.088 99.491,188.088C98.403,188.088 97.355,187.904 96.347,187.536C95.339,187.168 94.491,186.656 93.803,186L94.547,184.488C96.083,185.784 97.715,186.432 99.443,186.432C100.643,186.432 101.555,186.164 102.179,185.628C102.803,185.092 103.115,184.304 103.115,183.264C103.115,181.2 101.819,180.168 99.227,180.168L97.283,180.168L97.283,178.512L98.843,178.512C100.091,178.512 101.051,178.236 101.723,177.684C102.395,177.132 102.731,176.336 102.731,175.296C102.731,174.384 102.459,173.684 101.915,173.196C101.371,172.708 100.595,172.464 99.587,172.464C97.955,172.464 96.355,173.112 94.787,174.408L94.043,172.896C94.731,172.24 95.571,171.728 96.563,171.36C97.555,170.992 98.587,170.808 99.659,170.808C101.195,170.808 102.415,171.196 103.319,171.972C104.223,172.748 104.675,173.792 104.675,175.104C104.675,176.08 104.439,176.932 103.967,177.66C103.495,178.388 102.835,178.912 101.987,179.232C102.979,179.52 103.739,180.012 104.267,180.708Z" style="fill-rule:nonzero;"/>
                            <path d="M118.271,172.944C119.383,174.368 119.939,176.4 119.939,179.04C119.939,181.904 119.363,184.132 118.211,185.724C117.059,187.316 115.451,188.112 113.387,188.112C112.427,188.112 111.483,187.932 110.555,187.572C109.627,187.212 108.811,186.696 108.107,186.024L108.851,184.512C109.651,185.184 110.415,185.676 111.143,185.988C111.871,186.3 112.611,186.456 113.363,186.456C114.819,186.456 115.947,185.812 116.747,184.524C117.547,183.236 117.947,181.416 117.947,179.064L117.947,178.752C117.579,179.648 116.983,180.352 116.159,180.864C115.335,181.376 114.403,181.632 113.363,181.632C112.339,181.632 111.427,181.408 110.627,180.96C109.827,180.512 109.203,179.88 108.755,179.064C108.307,178.248 108.083,177.312 108.083,176.256C108.083,175.216 108.315,174.28 108.779,173.448C109.243,172.616 109.891,171.968 110.723,171.504C111.555,171.04 112.491,170.808 113.531,170.808C115.579,170.808 117.159,171.52 118.271,172.944ZM116.351,178.932C117.047,178.236 117.395,177.336 117.395,176.232C117.395,175.112 117.047,174.204 116.351,173.508C115.655,172.812 114.747,172.464 113.627,172.464C112.539,172.464 111.667,172.808 111.011,173.496C110.355,174.184 110.027,175.096 110.027,176.232C110.027,177.368 110.359,178.276 111.023,178.956C111.687,179.636 112.563,179.976 113.651,179.976C114.755,179.976 115.655,179.628 116.351,178.932Z" style="fill-rule:nonzero;"/>
                            <path d="M128.123,188.52L126.707,187.704L136.715,170.4L138.131,171.216L128.123,188.52ZM123.659,179.844C122.939,178.972 122.579,177.68 122.579,175.968C122.579,174.272 122.939,172.988 123.659,172.116C124.379,171.244 125.379,170.808 126.659,170.808C127.939,170.808 128.939,171.244 129.659,172.116C130.379,172.988 130.739,174.272 130.739,175.968C130.739,177.68 130.379,178.972 129.659,179.844C128.939,180.716 127.939,181.152 126.659,181.152C125.379,181.152 124.379,180.716 123.659,179.844ZM128.399,178.848C128.775,178.24 128.963,177.28 128.963,175.968C128.963,174.672 128.775,173.72 128.399,173.112C128.023,172.504 127.443,172.2 126.659,172.2C125.875,172.2 125.291,172.504 124.907,173.112C124.523,173.72 124.331,174.672 124.331,175.968C124.331,177.28 124.523,178.24 124.907,178.848C125.291,179.456 125.875,179.76 126.659,179.76C127.443,179.76 128.023,179.456 128.399,178.848ZM135.179,186.78C134.459,185.908 134.099,184.616 134.099,182.904C134.099,181.208 134.459,179.924 135.179,179.052C135.899,178.18 136.899,177.744 138.179,177.744C139.475,177.744 140.479,178.176 141.191,179.04C141.903,179.904 142.259,181.192 142.259,182.904C142.259,184.616 141.903,185.908 141.191,186.78C140.479,187.652 139.475,188.088 138.179,188.088C136.899,188.088 135.899,187.652 135.179,186.78ZM139.943,185.796C140.319,185.196 140.507,184.232 140.507,182.904C140.507,181.608 140.315,180.656 139.931,180.048C139.547,179.44 138.963,179.136 138.179,179.136C137.395,179.136 136.815,179.44 136.439,180.048C136.063,180.656 135.875,181.608 135.875,182.904C135.875,184.216 136.063,185.176 136.439,185.784C136.815,186.392 137.395,186.696 138.179,186.696C138.979,186.696 139.567,186.396 139.943,185.796Z" style="fill-rule:nonzero;"/>
                            <path d="M144.419,192C145.219,190.112 145.791,188.328 146.135,186.648C146.479,184.968 146.651,183.288 146.651,181.608C146.651,179.928 146.479,178.248 146.135,176.568C145.791,174.888 145.219,173.104 144.419,171.216L145.763,170.664C146.787,172.568 147.523,174.4 147.971,176.16C148.419,177.92 148.643,179.736 148.643,181.608C148.643,183.48 148.419,185.3 147.971,187.068C147.523,188.836 146.787,190.664 145.763,192.552L144.419,192Z" style="fill-rule:nonzero;"/>
                        </g>
                    </g>
                </g>
            </g>
        </g>
        <g transform="matrix(1,0,0,1,22.5248,72)">
            <g>
                <g transform="matrix(0.89292,0,0,0.89292,109.062,24.9084)">
                    <g transform="matrix(1,0,0,1.17618,0,-81.9517)">
                        <ellipse cx="389.5" cy="393.543" rx="30.5" ry="25.543" style="fill:rgb(222,196,193);"/>
                    </g>
                    <g transform="matrix(1,0,0,1.17618,0,-81.9517)">
                        <path d="M397.364,418.195C394.856,418.787 392.219,419.086 389.5,419.086C372.667,419.086 359,407.64 359,393.543C359,379.445 372.667,368 389.5,368C392.219,368 394.856,368.299 397.364,368.89C384.335,371.767 374.727,381.723 374.727,393.543C374.727,405.363 384.335,415.318 397.364,418.195Z" style="fill:rgb(215,186,181);"/>
                    </g>
                    <g transform="matrix(1,0,0,1.17618,38.8677,-88.9013)">
                        <ellipse cx="389.5" cy="393.543" rx="30.5" ry="25.543" style="fill:rgb(89,24,30);"/>
                    </g>
                    <g transform="matrix(0.948098,-0.317977,0.317977,0.948098,-49.8014,133.659)">
                        <rect x="338" y="300" width="11" height="73.974" style="fill:rgb(201,40,61);"/>
                    </g>
                    <g transform="matrix(1,0,0,1.17618,24.0234,-71.9013)">
                        <ellipse cx="389.5" cy="393.543" rx="30.5" ry="25.543" style="fill:rgb(233,158,84);"/>
                    </g>
                    <g transform="matrix(1,0,0,-0.848996,0,770.642)">
                        <path d="M458,447.197L359,447.197L372.977,380.974L444.023,380.974L458,447.197Z" style="fill:rgb(201,40,61);"/>
                    </g>
                    <g transform="matrix(1,0,0,-0.848996,0,770.642)">
                        <path d="M359,447.197L376.478,447.197L390.455,380.974L372.977,380.974L359,447.197Z" style="fill:rgb(185,37,57);"/>
                    </g>
                </g>
                <g transform="matrix(1,0,0,1,361.208,47.1376)">
                    <rect x="50.6" y="147" width="3.096" height="16.92" style="fill-rule:nonzero;"/>
                    <path d="M60.668,163.068C59.428,162.356 58.476,161.344 57.812,160.032C57.148,158.72 56.816,157.192 56.816,155.448C56.816,153.704 57.148,152.18 57.812,150.876C58.476,149.572 59.428,148.564 60.668,147.852C61.908,147.14 63.36,146.784 65.024,146.784C66.16,146.784 67.232,146.96 68.24,147.312C69.248,147.664 70.096,148.16 70.784,148.8L69.752,151.056C68.984,150.448 68.224,150.004 67.472,149.724C66.72,149.444 65.92,149.304 65.072,149.304C63.44,149.304 62.18,149.832 61.292,150.888C60.404,151.944 59.96,153.464 59.96,155.448C59.96,157.448 60.404,158.976 61.292,160.032C62.18,161.088 63.44,161.616 65.072,161.616C65.92,161.616 66.72,161.476 67.472,161.196C68.224,160.916 68.984,160.472 69.752,159.864L70.784,162.12C70.096,162.76 69.248,163.256 68.24,163.608C67.232,163.96 66.16,164.136 65.024,164.136C63.36,164.136 61.908,163.78 60.668,163.068Z" style="fill-rule:nonzero;"/>
                    <path d="M73.616,163.92L73.616,147L84.944,147L84.944,149.448L76.64,149.448L76.64,154.104L84.464,154.104L84.464,156.528L76.64,156.528L76.64,161.472L84.944,161.472L84.944,163.92L73.616,163.92Z" style="fill-rule:nonzero;"/>
                    <path d="M97.58,163.068C96.34,162.356 95.388,161.344 94.724,160.032C94.06,158.72 93.728,157.192 93.728,155.448C93.728,153.704 94.06,152.18 94.724,150.876C95.388,149.572 96.34,148.564 97.58,147.852C98.82,147.14 100.272,146.784 101.936,146.784C103.072,146.784 104.144,146.96 105.152,147.312C106.16,147.664 107.008,148.16 107.696,148.8L106.664,151.056C105.896,150.448 105.136,150.004 104.384,149.724C103.632,149.444 102.832,149.304 101.984,149.304C100.352,149.304 99.092,149.832 98.204,150.888C97.316,151.944 96.872,153.464 96.872,155.448C96.872,157.448 97.316,158.976 98.204,160.032C99.092,161.088 100.352,161.616 101.984,161.616C102.832,161.616 103.632,161.476 104.384,161.196C105.136,160.916 105.896,160.472 106.664,159.864L107.696,162.12C107.008,162.76 106.16,163.256 105.152,163.608C104.144,163.96 103.072,164.136 101.936,164.136C100.272,164.136 98.82,163.78 97.58,163.068Z" style="fill-rule:nonzero;"/>
                    <path d="M124.712,163.92L121.352,163.92L118.448,158.52C118.176,158.008 117.84,157.648 117.44,157.44C117.04,157.232 116.536,157.128 115.928,157.128L113.576,157.128L113.576,163.92L110.528,163.92L110.528,147L118.016,147C119.936,147 121.396,147.428 122.396,148.284C123.396,149.14 123.896,150.376 123.896,151.992C123.896,153.288 123.532,154.356 122.804,155.196C122.076,156.036 121.048,156.584 119.72,156.84C120.616,157.08 121.336,157.712 121.88,158.736L124.712,163.92ZM120.152,154.092C120.696,153.652 120.968,152.976 120.968,152.064C120.968,151.136 120.696,150.46 120.152,150.036C119.608,149.612 118.752,149.4 117.584,149.4L113.552,149.4L113.552,154.752L117.584,154.752C118.752,154.752 119.608,154.532 120.152,154.092Z" style="fill-rule:nonzero;"/>
                    <path d="M127.208,163.92L127.208,147L138.536,147L138.536,149.448L130.232,149.448L130.232,154.104L138.056,154.104L138.056,156.528L130.232,156.528L130.232,161.472L138.536,161.472L138.536,163.92L127.208,163.92Z" style="fill-rule:nonzero;"/>
                    <path d="M153.992,163.92L152.288,159.96L144.056,159.96L142.352,163.92L139.232,163.92L146.888,147L149.408,147L157.064,163.92L153.992,163.92ZM145.064,157.56L151.256,157.56L148.16,150.36L145.064,157.56Z" style="fill-rule:nonzero;"/>
                    <path d="M172.952,147L175.376,147L175.376,163.92L172.64,163.92L172.64,152.736L168.176,161.184L166.112,161.184L161.624,152.856L161.648,163.92L158.912,163.92L158.912,147L161.36,147L167.168,158.064L172.952,147Z" style="fill-rule:nonzero;"/>
                    <path d="M83.048,187.068C82.6,185.3 82.376,183.48 82.376,181.608C82.376,179.736 82.6,177.92 83.048,176.16C83.496,174.4 84.232,172.568 85.256,170.664L86.6,171.216C85.8,173.104 85.228,174.888 84.884,176.568C84.54,178.248 84.368,179.928 84.368,181.608C84.368,183.288 84.54,184.968 84.884,186.648C85.228,188.328 85.8,190.112 86.6,192L85.256,192.552C84.232,190.664 83.496,188.836 83.048,187.068Z" style="fill-rule:nonzero;"/>
                    <path d="M96.248,186.264L99.968,186.264L99.968,187.92L90.56,187.92L90.56,186.264L94.28,186.264L94.28,173.448L91.304,175.32L90.392,173.808L94.832,171L96.248,171L96.248,186.264Z" style="fill-rule:nonzero;"/>
                    <path d="M114.284,180.792C114.836,181.528 115.112,182.408 115.112,183.432C115.112,184.888 114.584,186.028 113.528,186.852C112.472,187.676 110.976,188.088 109.04,188.088C107.104,188.088 105.608,187.676 104.552,186.852C103.496,186.028 102.968,184.888 102.968,183.432C102.968,182.392 103.248,181.504 103.808,180.768C104.368,180.032 105.144,179.52 106.136,179.232C105.288,178.912 104.616,178.408 104.12,177.72C103.624,177.032 103.376,176.224 103.376,175.296C103.376,173.92 103.876,172.828 104.876,172.02C105.876,171.212 107.264,170.808 109.04,170.808C110.816,170.808 112.204,171.212 113.204,172.02C114.204,172.828 114.704,173.92 114.704,175.296C114.704,176.224 114.456,177.036 113.96,177.732C113.464,178.428 112.8,178.928 111.968,179.232C112.96,179.536 113.732,180.056 114.284,180.792ZM106.268,177.72C106.9,178.248 107.824,178.512 109.04,178.512C110.256,178.512 111.18,178.248 111.812,177.72C112.444,177.192 112.76,176.432 112.76,175.44C112.76,174.496 112.444,173.76 111.812,173.232C111.18,172.704 110.256,172.44 109.04,172.44C107.824,172.44 106.9,172.704 106.268,173.232C105.636,173.76 105.32,174.496 105.32,175.44C105.32,176.432 105.636,177.192 106.268,177.72ZM113.168,183.312C113.168,181.216 111.792,180.168 109.04,180.168C106.288,180.168 104.912,181.216 104.912,183.312C104.912,185.408 106.288,186.456 109.04,186.456C111.792,186.456 113.168,185.408 113.168,183.312Z" style="fill-rule:nonzero;"/>
                    <path d="M123.104,188.52L121.688,187.704L131.696,170.4L133.112,171.216L123.104,188.52ZM118.64,179.844C117.92,178.972 117.56,177.68 117.56,175.968C117.56,174.272 117.92,172.988 118.64,172.116C119.36,171.244 120.36,170.808 121.64,170.808C122.92,170.808 123.92,171.244 124.64,172.116C125.36,172.988 125.72,174.272 125.72,175.968C125.72,177.68 125.36,178.972 124.64,179.844C123.92,180.716 122.92,181.152 121.64,181.152C120.36,181.152 119.36,180.716 118.64,179.844ZM123.38,178.848C123.756,178.24 123.944,177.28 123.944,175.968C123.944,174.672 123.756,173.72 123.38,173.112C123.004,172.504 122.424,172.2 121.64,172.2C120.856,172.2 120.272,172.504 119.888,173.112C119.504,173.72 119.312,174.672 119.312,175.968C119.312,177.28 119.504,178.24 119.888,178.848C120.272,179.456 120.856,179.76 121.64,179.76C122.424,179.76 123.004,179.456 123.38,178.848ZM130.16,186.78C129.44,185.908 129.08,184.616 129.08,182.904C129.08,181.208 129.44,179.924 130.16,179.052C130.88,178.18 131.88,177.744 133.16,177.744C134.456,177.744 135.46,178.176 136.172,179.04C136.884,179.904 137.24,181.192 137.24,182.904C137.24,184.616 136.884,185.908 136.172,186.78C135.46,187.652 134.456,188.088 133.16,188.088C131.88,188.088 130.88,187.652 130.16,186.78ZM134.924,185.796C135.3,185.196 135.488,184.232 135.488,182.904C135.488,181.608 135.296,180.656 134.912,180.048C134.528,179.44 133.944,179.136 133.16,179.136C132.376,179.136 131.796,179.44 131.42,180.048C131.044,180.656 130.856,181.608 130.856,182.904C130.856,184.216 131.044,185.176 131.42,185.784C131.796,186.392 132.376,186.696 133.16,186.696C133.96,186.696 134.548,186.396 134.924,185.796Z" style="fill-rule:nonzero;"/>
                    <path d="M139.4,192C140.2,190.112 140.772,188.328 141.116,186.648C141.46,184.968 141.632,183.288 141.632,181.608C141.632,179.928 141.46,178.248 141.116,176.568C140.772,174.888 140.2,173.104 139.4,171.216L140.744,170.664C141.768,172.568 142.504,174.4 142.952,176.16C143.4,177.92 143.624,179.736 143.624,181.608C143.624,183.48 143.4,185.3 142.952,187.068C142.504,188.836 141.768,190.664 140.744,192.552L139.4,192Z" style="fill-rule:nonzero;"/>
                </g>
            </g>
        </g>
        <g transform="matrix(1,0,0,1,3,72)">
            <g>
                <g transform="matrix(0.905116,0,0,0.905116,887.564,16.8529)">
                    <g transform="matrix(0.709163,0,0,-0.709163,31.9442,751.428)">
                        <path d="M519,447.197L268,447.197L286.197,429L500.803,429L519,447.197Z" style="fill:rgb(130,3,51);"/>
                    </g>
                    <g transform="matrix(0.404025,0,0,-0.709163,152.016,738.523)">
                        <path d="M519,447.197L268,447.197L273.855,429L513.145,429L519,447.197Z" style="fill:rgb(248,169,91);"/>
                    </g>
                    <g transform="matrix(0.404025,0,0,-0.709163,152.016,738.523)">
                        <path d="M268,447.197L290.041,447.197L295.896,429L273.855,429L268,447.197Z" style="fill:rgb(233,158,84);"/>
                    </g>
                    <g transform="matrix(0.709163,0,0,0.709163,64.5657,130.061)">
                        <rect x="279.336" y="387.113" width="136.329" height="23.69" style="fill:rgb(160,74,45);"/>
                    </g>
                    <g transform="matrix(0.709163,0,0,0.709163,64.5657,130.061)">
                        <rect x="279.336" y="387.113" width="9.221" height="23.69" style="fill:rgb(143,67,41);"/>
                    </g>
                    <g transform="matrix(0.709163,0,0,0.709163,62.7928,131.429)">
                        <rect x="276" y="379" width="148" height="6.185" style="fill:rgb(240,222,58);"/>
                    </g>
                    <g transform="matrix(0.689866,0,0,0.910696,61.6133,64.0517)">
                        <clipPath id="_clip1">
                            <rect x="288" y="348" width="147" height="21.113"/>
                        </clipPath>
                        <g clip-path="url(#_clip1)">
                            <path d="M435,357.778C435,352.382 429.216,348 422.092,348L300.908,348C293.784,348 288,352.382 288,357.778L288,377.335C288,382.732 293.784,387.113 300.908,387.113L422.092,387.113C429.216,387.113 435,382.732 435,377.335L435,357.778Z" style="fill:rgb(248,169,91);"/>
                        </g>
                    </g>
                    <g transform="matrix(0.689866,0,0,0.910696,61.6133,64.0517)">
                        <clipPath id="_clip2">
                            <rect x="288" y="348" width="147" height="21.113"/>
                        </clipPath>
                        <g clip-path="url(#_clip2)">
                            <path d="M313.817,348C306.641,348.039 300.908,352.406 300.908,357.778L300.908,377.335C300.908,382.708 306.641,387.074 313.817,387.113L300.908,387.113C293.784,387.113 288,382.732 288,377.335L288,357.778C288,352.406 293.733,348.039 300.908,348L313.817,348Z" style="fill:rgb(233,158,84);"/>
                        </g>
                    </g>
                </g>
                <g transform="matrix(1,0,0,1,1056.06,126)">
                    <g>
                        <path d="M22.604,163.068C21.364,162.356 20.412,161.344 19.748,160.032C19.084,158.72 18.752,157.192 18.752,155.448C18.752,153.704 19.084,152.18 19.748,150.876C20.412,149.572 21.364,148.564 22.604,147.852C23.844,147.14 25.296,146.784 26.96,146.784C28.096,146.784 29.168,146.96 30.176,147.312C31.184,147.664 32.032,148.16 32.72,148.8L31.688,151.056C30.92,150.448 30.16,150.004 29.408,149.724C28.656,149.444 27.856,149.304 27.008,149.304C25.376,149.304 24.116,149.832 23.228,150.888C22.34,151.944 21.896,153.464 21.896,155.448C21.896,157.448 22.34,158.976 23.228,160.032C24.116,161.088 25.376,161.616 27.008,161.616C27.856,161.616 28.656,161.476 29.408,161.196C30.16,160.916 30.92,160.472 31.688,159.864L32.72,162.12C32.032,162.76 31.184,163.256 30.176,163.608C29.168,163.96 28.096,164.136 26.96,164.136C25.296,164.136 23.844,163.78 22.604,163.068Z" style="fill-rule:nonzero;"/>
                        <path d="M47.264,147L50.288,147L50.288,163.92L47.264,163.92L47.264,156.576L38.6,156.576L38.6,163.92L35.552,163.92L35.552,147L38.6,147L38.6,154.08L47.264,154.08L47.264,147Z" style="fill-rule:nonzero;"/>
                        <path d="M53.936,163.92L53.936,147L65.264,147L65.264,149.448L56.96,149.448L56.96,154.104L64.784,154.104L64.784,156.528L56.96,156.528L56.96,161.472L65.264,161.472L65.264,163.92L53.936,163.92Z" style="fill-rule:nonzero;"/>
                        <path d="M68.072,163.92L68.072,147L79.4,147L79.4,149.448L71.096,149.448L71.096,154.104L78.92,154.104L78.92,156.528L71.096,156.528L71.096,161.472L79.4,161.472L79.4,163.92L68.072,163.92Z" style="fill-rule:nonzero;"/>
                        <path d="M84.056,163.608C82.92,163.256 81.96,162.76 81.176,162.12L82.208,159.864C83.024,160.488 83.884,160.944 84.788,161.232C85.692,161.52 86.672,161.664 87.728,161.664C88.896,161.664 89.796,161.46 90.428,161.052C91.06,160.644 91.376,160.072 91.376,159.336C91.376,158.696 91.084,158.208 90.5,157.872C89.916,157.536 88.944,157.216 87.584,156.912C86.176,156.608 85.032,156.256 84.152,155.856C83.272,155.456 82.608,154.944 82.16,154.32C81.712,153.696 81.488,152.904 81.488,151.944C81.488,150.952 81.76,150.064 82.304,149.28C82.848,148.496 83.616,147.884 84.608,147.444C85.6,147.004 86.744,146.784 88.04,146.784C89.224,146.784 90.352,146.964 91.424,147.324C92.496,147.684 93.376,148.176 94.064,148.8L93.032,151.056C91.528,149.856 89.864,149.256 88.04,149.256C86.952,149.256 86.092,149.476 85.46,149.916C84.828,150.356 84.512,150.968 84.512,151.752C84.512,152.408 84.792,152.912 85.352,153.264C85.912,153.616 86.864,153.944 88.208,154.248C89.632,154.568 90.788,154.924 91.676,155.316C92.564,155.708 93.244,156.208 93.716,156.816C94.188,157.424 94.424,158.192 94.424,159.12C94.424,160.128 94.156,161.012 93.62,161.772C93.084,162.532 92.308,163.116 91.292,163.524C90.276,163.932 89.08,164.136 87.704,164.136C86.408,164.136 85.192,163.96 84.056,163.608Z" style="fill-rule:nonzero;"/>
                        <path d="M97.28,163.92L97.28,147L108.608,147L108.608,149.448L100.304,149.448L100.304,154.104L108.128,154.104L108.128,156.528L100.304,156.528L100.304,161.472L108.608,161.472L108.608,163.92L97.28,163.92Z" style="fill-rule:nonzero;"/>
                        <path d="M124.1,156.672C124.636,157.392 124.904,158.272 124.904,159.312C124.904,160.752 124.388,161.88 123.356,162.696C122.324,163.512 120.904,163.92 119.096,163.92L111.416,163.92L111.416,147L118.856,147C120.616,147 121.996,147.388 122.996,148.164C123.996,148.94 124.496,150.024 124.496,151.416C124.496,152.312 124.26,153.088 123.788,153.744C123.316,154.4 122.664,154.88 121.832,155.184C122.808,155.456 123.564,155.952 124.1,156.672ZM114.44,154.128L118.352,154.128C120.48,154.128 121.544,153.336 121.544,151.752C121.544,150.952 121.28,150.36 120.752,149.976C120.224,149.592 119.424,149.4 118.352,149.4L114.44,149.4L114.44,154.128ZM121.208,160.92C121.72,160.52 121.976,159.896 121.976,159.048C121.976,158.2 121.716,157.568 121.196,157.152C120.676,156.736 119.864,156.528 118.76,156.528L114.44,156.528L114.44,161.52L118.76,161.52C119.88,161.52 120.696,161.32 121.208,160.92Z" style="fill-rule:nonzero;"/>
                        <path d="M129.512,162.336C128.312,161.136 127.712,159.384 127.712,157.08L127.712,147L130.736,147L130.736,157.248C130.736,158.704 131.08,159.804 131.768,160.548C132.456,161.292 133.464,161.664 134.792,161.664C136.104,161.664 137.104,161.288 137.792,160.536C138.48,159.784 138.824,158.688 138.824,157.248L138.824,147L141.848,147L141.848,157.08C141.848,159.368 141.248,161.116 140.048,162.324C138.848,163.532 137.096,164.136 134.792,164.136C132.472,164.136 130.712,163.536 129.512,162.336Z" style="fill-rule:nonzero;"/>
                        <path d="M159.584,163.92L156.224,163.92L153.32,158.52C153.048,158.008 152.712,157.648 152.312,157.44C151.912,157.232 151.408,157.128 150.8,157.128L148.448,157.128L148.448,163.92L145.4,163.92L145.4,147L152.888,147C154.808,147 156.268,147.428 157.268,148.284C158.268,149.14 158.768,150.376 158.768,151.992C158.768,153.288 158.404,154.356 157.676,155.196C156.948,156.036 155.92,156.584 154.592,156.84C155.488,157.08 156.208,157.712 156.752,158.736L159.584,163.92ZM155.024,154.092C155.568,153.652 155.84,152.976 155.84,152.064C155.84,151.136 155.568,150.46 155.024,150.036C154.48,149.612 153.624,149.4 152.456,149.4L148.424,149.4L148.424,154.752L152.456,154.752C153.624,154.752 154.48,154.532 155.024,154.092Z" style="fill-rule:nonzero;"/>
                        <path d="M176.072,154.776L176.072,162.888C175.304,163.272 174.372,163.576 173.276,163.8C172.18,164.024 171.064,164.136 169.928,164.136C168.184,164.136 166.672,163.788 165.392,163.092C164.112,162.396 163.132,161.396 162.452,160.092C161.772,158.788 161.432,157.24 161.432,155.448C161.432,153.672 161.772,152.132 162.452,150.828C163.132,149.524 164.1,148.524 165.356,147.828C166.612,147.132 168.088,146.784 169.784,146.784C170.968,146.784 172.08,146.956 173.12,147.3C174.16,147.644 175.024,148.136 175.712,148.776L174.68,151.008C173.896,150.4 173.124,149.964 172.364,149.7C171.604,149.436 170.768,149.304 169.856,149.304C168.112,149.304 166.796,149.82 165.908,150.852C165.02,151.884 164.576,153.416 164.576,155.448C164.576,159.608 166.4,161.688 170.048,161.688C171.136,161.688 172.224,161.536 173.312,161.232L173.312,156.984L169.664,156.984L169.664,154.776L176.072,154.776Z" style="fill-rule:nonzero;"/>
                        <path d="M179.552,163.92L179.552,147L190.88,147L190.88,149.448L182.576,149.448L182.576,154.104L190.4,154.104L190.4,156.528L182.576,156.528L182.576,161.472L190.88,161.472L190.88,163.92L179.552,163.92Z" style="fill-rule:nonzero;"/>
                        <path d="M207.872,163.92L204.512,163.92L201.608,158.52C201.336,158.008 201,157.648 200.6,157.44C200.2,157.232 199.696,157.128 199.088,157.128L196.736,157.128L196.736,163.92L193.688,163.92L193.688,147L201.176,147C203.096,147 204.556,147.428 205.556,148.284C206.556,149.14 207.056,150.376 207.056,151.992C207.056,153.288 206.692,154.356 205.964,155.196C205.236,156.036 204.208,156.584 202.88,156.84C203.776,157.08 204.496,157.712 205.04,158.736L207.872,163.92ZM203.312,154.092C203.856,153.652 204.128,152.976 204.128,152.064C204.128,151.136 203.856,150.46 203.312,150.036C202.768,149.612 201.912,149.4 200.744,149.4L196.712,149.4L196.712,154.752L200.744,154.752C201.912,154.752 202.768,154.532 203.312,154.092Z" style="fill-rule:nonzero;"/>
                        <path d="M83.06,187.068C82.612,185.3 82.388,183.48 82.388,181.608C82.388,179.736 82.612,177.92 83.06,176.16C83.508,174.4 84.244,172.568 85.268,170.664L86.612,171.216C85.812,173.104 85.24,174.888 84.896,176.568C84.552,178.248 84.38,179.928 84.38,181.608C84.38,183.288 84.552,184.968 84.896,186.648C85.24,188.328 85.812,190.112 86.612,192L85.268,192.552C84.244,190.664 83.508,188.836 83.06,187.068Z" style="fill-rule:nonzero;"/>
                        <path d="M96.26,186.264L99.98,186.264L99.98,187.92L90.572,187.92L90.572,186.264L94.292,186.264L94.292,173.448L91.316,175.32L90.404,173.808L94.844,171L96.26,171L96.26,186.264Z" style="fill-rule:nonzero;"/>
                        <path d="M112.508,177.96C113.308,178.408 113.932,179.04 114.38,179.856C114.828,180.672 115.052,181.608 115.052,182.664C115.052,183.704 114.82,184.64 114.356,185.472C113.892,186.304 113.244,186.952 112.412,187.416C111.58,187.88 110.644,188.112 109.604,188.112C107.556,188.112 105.976,187.4 104.864,185.976C103.752,184.552 103.196,182.52 103.196,179.88C103.196,177.976 103.456,176.344 103.976,174.984C104.496,173.624 105.244,172.588 106.22,171.876C107.196,171.164 108.364,170.808 109.724,170.808C110.7,170.808 111.652,170.988 112.58,171.348C113.508,171.708 114.324,172.224 115.028,172.896L114.284,174.408C113.484,173.736 112.72,173.244 111.992,172.932C111.264,172.62 110.524,172.464 109.772,172.464C108.316,172.464 107.184,173.108 106.376,174.396C105.568,175.684 105.164,177.504 105.164,179.856L105.164,180.216C105.532,179.32 106.124,178.608 106.94,178.08C107.756,177.552 108.7,177.288 109.772,177.288C110.796,177.288 111.708,177.512 112.508,177.96ZM112.124,185.424C112.78,184.736 113.108,183.824 113.108,182.688C113.108,181.568 112.776,180.664 112.112,179.976C111.448,179.288 110.572,178.944 109.484,178.944C108.38,178.944 107.48,179.292 106.784,179.988C106.088,180.684 105.74,181.584 105.74,182.688C105.74,183.808 106.088,184.716 106.784,185.412C107.48,186.108 108.388,186.456 109.508,186.456C110.596,186.456 111.468,186.112 112.124,185.424Z" style="fill-rule:nonzero;"/>
                        <path d="M123.092,188.52L121.676,187.704L131.684,170.4L133.1,171.216L123.092,188.52ZM118.628,179.844C117.908,178.972 117.548,177.68 117.548,175.968C117.548,174.272 117.908,172.988 118.628,172.116C119.348,171.244 120.348,170.808 121.628,170.808C122.908,170.808 123.908,171.244 124.628,172.116C125.348,172.988 125.708,174.272 125.708,175.968C125.708,177.68 125.348,178.972 124.628,179.844C123.908,180.716 122.908,181.152 121.628,181.152C120.348,181.152 119.348,180.716 118.628,179.844ZM123.368,178.848C123.744,178.24 123.932,177.28 123.932,175.968C123.932,174.672 123.744,173.72 123.368,173.112C122.992,172.504 122.412,172.2 121.628,172.2C120.844,172.2 120.26,172.504 119.876,173.112C119.492,173.72 119.3,174.672 119.3,175.968C119.3,177.28 119.492,178.24 119.876,178.848C120.26,179.456 120.844,179.76 121.628,179.76C122.412,179.76 122.992,179.456 123.368,178.848ZM130.148,186.78C129.428,185.908 129.068,184.616 129.068,182.904C129.068,181.208 129.428,179.924 130.148,179.052C130.868,178.18 131.868,177.744 133.148,177.744C134.444,177.744 135.448,178.176 136.16,179.04C136.872,179.904 137.228,181.192 137.228,182.904C137.228,184.616 136.872,185.908 136.16,186.78C135.448,187.652 134.444,188.088 133.148,188.088C131.868,188.088 130.868,187.652 130.148,186.78ZM134.912,185.796C135.288,185.196 135.476,184.232 135.476,182.904C135.476,181.608 135.284,180.656 134.9,180.048C134.516,179.44 133.932,179.136 133.148,179.136C132.364,179.136 131.784,179.44 131.408,180.048C131.032,180.656 130.844,181.608 130.844,182.904C130.844,184.216 131.032,185.176 131.408,185.784C131.784,186.392 132.364,186.696 133.148,186.696C133.948,186.696 134.536,186.396 134.912,185.796Z" style="fill-rule:nonzero;"/>
                        <path d="M139.388,192C140.188,190.112 140.76,188.328 141.104,186.648C141.448,184.968 141.62,183.288 141.62,181.608C141.62,179.928 141.448,178.248 141.104,176.568C140.76,174.888 140.188,173.104 139.388,171.216L140.732,170.664C141.756,172.568 142.492,174.4 142.94,176.16C143.388,177.92 143.612,179.736 143.612,181.608C143.612,183.48 143.388,185.3 142.94,187.068C142.492,188.836 141.756,190.664 140.732,192.552L139.388,192Z" style="fill-rule:nonzero;"/>
                    </g>
                </g>
            </g>
        </g>
        <g transform="matrix(1,0,0,1,42.5454,72)">
            <g>
                <g transform="matrix(-0.00610178,0.881741,-1.15305,-0.00797925,1115.96,-161.17)">
                    <g transform="matrix(1,0,0,1,29,4.19721)">
                        <rect x="553" y="322.115" width="85" height="120.885" style="fill:rgb(129,57,26);"/>
                    </g>
                    <g transform="matrix(1,0,0,1,-2,0)">
                        <path d="M604,326.312L604,401" style="fill:none;stroke:rgb(103,42,16);stroke-width:3.9px;"/>
                    </g>
                    <g transform="matrix(1,0,0,1,20.5,0)">
                        <path d="M604,326.312L604,401" style="fill:none;stroke:rgb(103,42,16);stroke-width:3.9px;"/>
                    </g>
                    <g transform="matrix(6.12323e-17,-1,1.13807,6.96867e-17,210.634,953.656)">
                        <path d="M604,326.312L604,401" style="fill:none;stroke:rgb(103,42,16);stroke-width:3.7px;"/>
                    </g>
                    <g transform="matrix(1,0,0,1,41.5,0)">
                        <path d="M604,326.312L604,401" style="fill:none;stroke:rgb(103,42,16);stroke-width:3.9px;"/>
                    </g>
                    <g transform="matrix(1,0,0,1,29,4.19721)">
                        <path d="M638,368.115L553,359.115L553,443L638,443L638,368.115Z" style="fill:rgb(195,195,195);"/>
                    </g>
                    <g transform="matrix(1,0,0,1,29,4.19721)">
                        <path d="M638,376.115L553,368.115L553,443L638,443L638,376.115Z" style="fill:rgb(84,1,51);"/>
                    </g>
                    <g transform="matrix(1,0,1.73472e-18,1,29,4.19721)">
                        <path d="M553,426.357L637.849,426.357L637.849,376.101L638,376.115L638,443L553,443L553,426.357Z" style="fill:rgb(68,0,43);"/>
                    </g>
                </g>
                <g transform="matrix(1,0,0,1,553.208,82.1376)">
                    <path d="M45.272,163.068C44.032,162.356 43.08,161.344 42.416,160.032C41.752,158.72 41.42,157.192 41.42,155.448C41.42,153.704 41.752,152.18 42.416,150.876C43.08,149.572 44.032,148.564 45.272,147.852C46.512,147.14 47.964,146.784 49.628,146.784C50.764,146.784 51.836,146.96 52.844,147.312C53.852,147.664 54.7,148.16 55.388,148.8L54.356,151.056C53.588,150.448 52.828,150.004 52.076,149.724C51.324,149.444 50.524,149.304 49.676,149.304C48.044,149.304 46.784,149.832 45.896,150.888C45.008,151.944 44.564,153.464 44.564,155.448C44.564,157.448 45.008,158.976 45.896,160.032C46.784,161.088 48.044,161.616 49.676,161.616C50.524,161.616 51.324,161.476 52.076,161.196C52.828,160.916 53.588,160.472 54.356,159.864L55.388,162.12C54.7,162.76 53.852,163.256 52.844,163.608C51.836,163.96 50.764,164.136 49.628,164.136C47.964,164.136 46.512,163.78 45.272,163.068Z" style="fill-rule:nonzero;"/>
                    <path d="M69.932,147L72.956,147L72.956,163.92L69.932,163.92L69.932,156.576L61.268,156.576L61.268,163.92L58.22,163.92L58.22,147L61.268,147L61.268,154.08L69.932,154.08L69.932,147Z" style="fill-rule:nonzero;"/>
                    <path d="M79.856,163.08C78.648,162.376 77.716,161.368 77.06,160.056C76.404,158.744 76.076,157.208 76.076,155.448C76.076,153.688 76.4,152.156 77.048,150.852C77.696,149.548 78.628,148.544 79.844,147.84C81.06,147.136 82.492,146.784 84.14,146.784C85.788,146.784 87.216,147.136 88.424,147.84C89.632,148.544 90.56,149.548 91.208,150.852C91.856,152.156 92.18,153.688 92.18,155.448C92.18,157.208 91.852,158.744 91.196,160.056C90.54,161.368 89.608,162.376 88.4,163.08C87.192,163.784 85.772,164.136 84.14,164.136C82.492,164.136 81.064,163.784 79.856,163.08ZM87.776,160.056C88.648,158.984 89.084,157.448 89.084,155.448C89.084,153.448 88.648,151.916 87.776,150.852C86.904,149.788 85.692,149.256 84.14,149.256C82.572,149.256 81.352,149.788 80.48,150.852C79.608,151.916 79.172,153.448 79.172,155.448C79.172,157.448 79.608,158.984 80.48,160.056C81.352,161.128 82.572,161.664 84.14,161.664C85.692,161.664 86.904,161.128 87.776,160.056Z" style="fill-rule:nonzero;"/>
                    <path d="M98.624,163.068C97.384,162.356 96.432,161.344 95.768,160.032C95.104,158.72 94.772,157.192 94.772,155.448C94.772,153.704 95.104,152.18 95.768,150.876C96.432,149.572 97.384,148.564 98.624,147.852C99.864,147.14 101.316,146.784 102.98,146.784C104.116,146.784 105.188,146.96 106.196,147.312C107.204,147.664 108.052,148.16 108.74,148.8L107.708,151.056C106.94,150.448 106.18,150.004 105.428,149.724C104.676,149.444 103.876,149.304 103.028,149.304C101.396,149.304 100.136,149.832 99.248,150.888C98.36,151.944 97.916,153.464 97.916,155.448C97.916,157.448 98.36,158.976 99.248,160.032C100.136,161.088 101.396,161.616 103.028,161.616C103.876,161.616 104.676,161.476 105.428,161.196C106.18,160.916 106.94,160.472 107.708,159.864L108.74,162.12C108.052,162.76 107.204,163.256 106.196,163.608C105.188,163.96 104.116,164.136 102.98,164.136C101.316,164.136 99.864,163.78 98.624,163.068Z" style="fill-rule:nonzero;"/>
                    <path d="M114.512,163.08C113.304,162.376 112.372,161.368 111.716,160.056C111.06,158.744 110.732,157.208 110.732,155.448C110.732,153.688 111.056,152.156 111.704,150.852C112.352,149.548 113.284,148.544 114.5,147.84C115.716,147.136 117.148,146.784 118.796,146.784C120.444,146.784 121.872,147.136 123.08,147.84C124.288,148.544 125.216,149.548 125.864,150.852C126.512,152.156 126.836,153.688 126.836,155.448C126.836,157.208 126.508,158.744 125.852,160.056C125.196,161.368 124.264,162.376 123.056,163.08C121.848,163.784 120.428,164.136 118.796,164.136C117.148,164.136 115.72,163.784 114.512,163.08ZM122.432,160.056C123.304,158.984 123.74,157.448 123.74,155.448C123.74,153.448 123.304,151.916 122.432,150.852C121.56,149.788 120.348,149.256 118.796,149.256C117.228,149.256 116.008,149.788 115.136,150.852C114.264,151.916 113.828,153.448 113.828,155.448C113.828,157.448 114.264,158.984 115.136,160.056C116.008,161.128 117.228,161.664 118.796,161.664C120.348,161.664 121.56,161.128 122.432,160.056Z" style="fill-rule:nonzero;"/>
                    <path d="M129.956,163.92L129.956,147L133.052,147L133.052,161.376L140.948,161.376L140.948,163.92L129.956,163.92Z" style="fill-rule:nonzero;"/>
                    <path d="M156.068,163.92L154.364,159.96L146.132,159.96L144.428,163.92L141.308,163.92L148.964,147L151.484,147L159.14,163.92L156.068,163.92ZM147.14,157.56L153.332,157.56L150.236,150.36L147.14,157.56Z" style="fill-rule:nonzero;"/>
                    <path d="M162.836,163.92L162.836,149.544L157.316,149.544L157.316,147L171.452,147L171.452,149.544L165.932,149.544L165.932,163.92L162.836,163.92Z" style="fill-rule:nonzero;"/>
                    <path d="M173.564,163.92L173.564,147L184.892,147L184.892,149.448L176.588,149.448L176.588,154.104L184.412,154.104L184.412,156.528L176.588,156.528L176.588,161.472L184.892,161.472L184.892,163.92L173.564,163.92Z" style="fill-rule:nonzero;"/>
                    <path d="M83.048,187.068C82.6,185.3 82.376,183.48 82.376,181.608C82.376,179.736 82.6,177.92 83.048,176.16C83.496,174.4 84.232,172.568 85.256,170.664L86.6,171.216C85.8,173.104 85.228,174.888 84.884,176.568C84.54,178.248 84.368,179.928 84.368,181.608C84.368,183.288 84.54,184.968 84.884,186.648C85.228,188.328 85.8,190.112 86.6,192L85.256,192.552C84.232,190.664 83.496,188.836 83.048,187.068Z" style="fill-rule:nonzero;"/>
                    <path d="M96.248,186.264L99.968,186.264L99.968,187.92L90.56,187.92L90.56,186.264L94.28,186.264L94.28,173.448L91.304,175.32L90.392,173.808L94.832,171L96.248,171L96.248,186.264Z" style="fill-rule:nonzero;"/>
                    <path d="M114.284,180.792C114.836,181.528 115.112,182.408 115.112,183.432C115.112,184.888 114.584,186.028 113.528,186.852C112.472,187.676 110.976,188.088 109.04,188.088C107.104,188.088 105.608,187.676 104.552,186.852C103.496,186.028 102.968,184.888 102.968,183.432C102.968,182.392 103.248,181.504 103.808,180.768C104.368,180.032 105.144,179.52 106.136,179.232C105.288,178.912 104.616,178.408 104.12,177.72C103.624,177.032 103.376,176.224 103.376,175.296C103.376,173.92 103.876,172.828 104.876,172.02C105.876,171.212 107.264,170.808 109.04,170.808C110.816,170.808 112.204,171.212 113.204,172.02C114.204,172.828 114.704,173.92 114.704,175.296C114.704,176.224 114.456,177.036 113.96,177.732C113.464,178.428 112.8,178.928 111.968,179.232C112.96,179.536 113.732,180.056 114.284,180.792ZM106.268,177.72C106.9,178.248 107.824,178.512 109.04,178.512C110.256,178.512 111.18,178.248 111.812,177.72C112.444,177.192 112.76,176.432 112.76,175.44C112.76,174.496 112.444,173.76 111.812,173.232C111.18,172.704 110.256,172.44 109.04,172.44C107.824,172.44 106.9,172.704 106.268,173.232C105.636,173.76 105.32,174.496 105.32,175.44C105.32,176.432 105.636,177.192 106.268,177.72ZM113.168,183.312C113.168,181.216 111.792,180.168 109.04,180.168C106.288,180.168 104.912,181.216 104.912,183.312C104.912,185.408 106.288,186.456 109.04,186.456C111.792,186.456 113.168,185.408 113.168,183.312Z" style="fill-rule:nonzero;"/>
                    <path d="M123.104,188.52L121.688,187.704L131.696,170.4L133.112,171.216L123.104,188.52ZM118.64,179.844C117.92,178.972 117.56,177.68 117.56,175.968C117.56,174.272 117.92,172.988 118.64,172.116C119.36,171.244 120.36,170.808 121.64,170.808C122.92,170.808 123.92,171.244 124.64,172.116C125.36,172.988 125.72,174.272 125.72,175.968C125.72,177.68 125.36,178.972 124.64,179.844C123.92,180.716 122.92,181.152 121.64,181.152C120.36,181.152 119.36,180.716 118.64,179.844ZM123.38,178.848C123.756,178.24 123.944,177.28 123.944,175.968C123.944,174.672 123.756,173.72 123.38,173.112C123.004,172.504 122.424,172.2 121.64,172.2C120.856,172.2 120.272,172.504 119.888,173.112C119.504,173.72 119.312,174.672 119.312,175.968C119.312,177.28 119.504,178.24 119.888,178.848C120.272,179.456 120.856,179.76 121.64,179.76C122.424,179.76 123.004,179.456 123.38,178.848ZM130.16,186.78C129.44,185.908 129.08,184.616 129.08,182.904C129.08,181.208 129.44,179.924 130.16,179.052C130.88,178.18 131.88,177.744 133.16,177.744C134.456,177.744 135.46,178.176 136.172,179.04C136.884,179.904 137.24,181.192 137.24,182.904C137.24,184.616 136.884,185.908 136.172,186.78C135.46,187.652 134.456,188.088 133.16,188.088C131.88,188.088 130.88,187.652 130.16,186.78ZM134.924,185.796C135.3,185.196 135.488,184.232 135.488,182.904C135.488,181.608 135.296,180.656 134.912,180.048C134.528,179.44 133.944,179.136 133.16,179.136C132.376,179.136 131.796,179.44 131.42,180.048C131.044,180.656 130.856,181.608 130.856,182.904C130.856,184.216 131.044,185.176 131.42,185.784C131.796,186.392 132.376,186.696 133.16,186.696C133.96,186.696 134.548,186.396 134.924,185.796Z" style="fill-rule:nonzero;"/>
                    <path d="M139.4,192C140.2,190.112 140.772,188.328 141.116,186.648C141.46,184.968 141.632,183.288 141.632,181.608C141.632,179.928 141.46,178.248 141.116,176.568C140.772,174.888 140.2,173.104 139.4,171.216L140.744,170.664C141.768,172.568 142.504,174.4 142.952,176.16C143.4,177.92 143.624,179.736 143.624,181.608C143.624,183.48 143.4,185.3 142.952,187.068C142.504,188.836 141.768,190.664 140.744,192.552L139.4,192Z" style="fill-rule:nonzero;"/>
                </g>
            </g>
        </g>
        <g transform="matrix(1,0,0,1,28.2738,72)">
            <g>
                <g transform="matrix(1.10124,0,0,1.10124,336.181,-68.2528)">
                    <g transform="matrix(1,0,0,1,0,-2)">
                        <g transform="matrix(1,0,0,0.700607,0,132.024)">
                            <rect x="433" y="412.988" width="175" height="21.305" style="fill:rgb(222,196,193);"/>
                        </g>
                        <g transform="matrix(1,0,0,0.700607,0,132.024)">
                            <rect x="433" y="412.988" width="63.816" height="21.305" style="fill:rgb(206,172,167);"/>
                        </g>
                        <g transform="matrix(1,0,0,0.884713,6.63231,56.0121)">
                            <ellipse cx="514.184" cy="412.988" rx="87.816" ry="8.4" style="fill:rgb(243,229,227);"/>
                        </g>
                        <g transform="matrix(1,0,0,0.884713,6.63231,55.0223)">
                            <ellipse cx="514.184" cy="412.988" rx="87.816" ry="8.4" style="fill:rgb(132,35,41);"/>
                        </g>
                        <g transform="matrix(1,0,0,0.884713,6.63231,55.0223)">
                            <path d="M522.684,404.67C478.186,405.037 443.368,408.627 443.368,412.988C443.368,417.349 478.186,420.938 522.684,421.306L514.184,421.388C465.717,421.388 426.368,417.624 426.368,412.988C426.368,408.352 465.717,404.588 514.184,404.588L522.684,404.67Z" style="fill:rgb(116,30,39);"/>
                        </g>
                        <g transform="matrix(1,0,0,1,2,0.968403)">
                            <ellipse cx="569.124" cy="417.921" rx="17.124" ry="2.477" style="fill:rgb(243,229,227);"/>
                        </g>
                    </g>
                    <g transform="matrix(0.836653,0,0,-0.709163,193.777,751.428)">
                        <path d="M519,447.197L268,447.197L278.001,429L508.999,429L519,447.197Z" style="fill:rgb(47,17,46);"/>
                    </g>
                </g>
                <g transform="matrix(1,0,0,1,854.13,106.138)">
                    <g>
                        <path d="M23.332,163.608C22.196,163.256 21.236,162.76 20.452,162.12L21.484,159.864C22.3,160.488 23.16,160.944 24.064,161.232C24.968,161.52 25.948,161.664 27.004,161.664C28.172,161.664 29.072,161.46 29.704,161.052C30.336,160.644 30.652,160.072 30.652,159.336C30.652,158.696 30.36,158.208 29.776,157.872C29.192,157.536 28.22,157.216 26.86,156.912C25.452,156.608 24.308,156.256 23.428,155.856C22.548,155.456 21.884,154.944 21.436,154.32C20.988,153.696 20.764,152.904 20.764,151.944C20.764,150.952 21.036,150.064 21.58,149.28C22.124,148.496 22.892,147.884 23.884,147.444C24.876,147.004 26.02,146.784 27.316,146.784C28.5,146.784 29.628,146.964 30.7,147.324C31.772,147.684 32.652,148.176 33.34,148.8L32.308,151.056C30.804,149.856 29.14,149.256 27.316,149.256C26.228,149.256 25.368,149.476 24.736,149.916C24.104,150.356 23.788,150.968 23.788,151.752C23.788,152.408 24.068,152.912 24.628,153.264C25.188,153.616 26.14,153.944 27.484,154.248C28.908,154.568 30.064,154.924 30.952,155.316C31.84,155.708 32.52,156.208 32.992,156.816C33.464,157.424 33.7,158.192 33.7,159.12C33.7,160.128 33.432,161.012 32.896,161.772C32.36,162.532 31.584,163.116 30.568,163.524C29.552,163.932 28.356,164.136 26.98,164.136C25.684,164.136 24.468,163.96 23.332,163.608Z" style="fill-rule:nonzero;"/>
                        <path d="M40.18,163.92L40.18,149.544L34.66,149.544L34.66,147L48.796,147L48.796,149.544L43.276,149.544L43.276,163.92L40.18,163.92Z" style="fill-rule:nonzero;"/>
                        <path d="M50.908,163.92L50.908,147L62.236,147L62.236,149.448L53.932,149.448L53.932,154.104L61.756,154.104L61.756,156.528L53.932,156.528L53.932,161.472L62.236,161.472L62.236,163.92L50.908,163.92Z" style="fill-rule:nonzero;"/>
                        <path d="M77.692,163.92L75.988,159.96L67.756,159.96L66.052,163.92L62.932,163.92L70.588,147L73.108,147L80.764,163.92L77.692,163.92ZM68.764,157.56L74.956,157.56L71.86,150.36L68.764,157.56Z" style="fill-rule:nonzero;"/>
                        <path d="M97.276,163.92L93.508,163.92L85.66,156.048L85.66,163.92L82.564,163.92L82.564,147L85.66,147L85.66,154.56L93.196,147L96.892,147L88.708,155.136L97.276,163.92Z" style="fill-rule:nonzero;"/>
                        <path d="M28.048,187.068C27.6,185.3 27.376,183.48 27.376,181.608C27.376,179.736 27.6,177.92 28.048,176.16C28.496,174.4 29.232,172.568 30.256,170.664L31.6,171.216C30.8,173.104 30.228,174.888 29.884,176.568C29.54,178.248 29.368,179.928 29.368,181.608C29.368,183.288 29.54,184.968 29.884,186.648C30.228,188.328 30.8,190.112 31.6,192L30.256,192.552C29.232,190.664 28.496,188.836 28.048,187.068Z" style="fill-rule:nonzero;"/>
                        <path d="M41.248,186.264L44.968,186.264L44.968,187.92L35.56,187.92L35.56,186.264L39.28,186.264L39.28,173.448L36.304,175.32L35.392,173.808L39.832,171L41.248,171L41.248,186.264Z" style="fill-rule:nonzero;"/>
                        <path d="M48.448,171L59.632,171L59.632,172.464L51.712,187.92L49.576,187.92L57.472,172.656L48.448,172.656L48.448,171Z" style="fill-rule:nonzero;"/>
                        <path d="M68.104,188.52L66.688,187.704L76.696,170.4L78.112,171.216L68.104,188.52ZM63.64,179.844C62.92,178.972 62.56,177.68 62.56,175.968C62.56,174.272 62.92,172.988 63.64,172.116C64.36,171.244 65.36,170.808 66.64,170.808C67.92,170.808 68.92,171.244 69.64,172.116C70.36,172.988 70.72,174.272 70.72,175.968C70.72,177.68 70.36,178.972 69.64,179.844C68.92,180.716 67.92,181.152 66.64,181.152C65.36,181.152 64.36,180.716 63.64,179.844ZM68.38,178.848C68.756,178.24 68.944,177.28 68.944,175.968C68.944,174.672 68.756,173.72 68.38,173.112C68.004,172.504 67.424,172.2 66.64,172.2C65.856,172.2 65.272,172.504 64.888,173.112C64.504,173.72 64.312,174.672 64.312,175.968C64.312,177.28 64.504,178.24 64.888,178.848C65.272,179.456 65.856,179.76 66.64,179.76C67.424,179.76 68.004,179.456 68.38,178.848ZM75.16,186.78C74.44,185.908 74.08,184.616 74.08,182.904C74.08,181.208 74.44,179.924 75.16,179.052C75.88,178.18 76.88,177.744 78.16,177.744C79.456,177.744 80.46,178.176 81.172,179.04C81.884,179.904 82.24,181.192 82.24,182.904C82.24,184.616 81.884,185.908 81.172,186.78C80.46,187.652 79.456,188.088 78.16,188.088C76.88,188.088 75.88,187.652 75.16,186.78ZM79.924,185.796C80.3,185.196 80.488,184.232 80.488,182.904C80.488,181.608 80.296,180.656 79.912,180.048C79.528,179.44 78.944,179.136 78.16,179.136C77.376,179.136 76.796,179.44 76.42,180.048C76.044,180.656 75.856,181.608 75.856,182.904C75.856,184.216 76.044,185.176 76.42,185.784C76.796,186.392 77.376,186.696 78.16,186.696C78.96,186.696 79.548,186.396 79.924,185.796Z" style="fill-rule:nonzero;"/>
                        <path d="M84.4,192C85.2,190.112 85.772,188.328 86.116,186.648C86.46,184.968 86.632,183.288 86.632,181.608C86.632,179.928 86.46,178.248 86.116,176.568C85.772,174.888 85.2,173.104 84.4,171.216L85.744,170.664C86.768,172.568 87.504,174.4 87.952,176.16C88.4,177.92 88.624,179.736 88.624,181.608C88.624,183.48 88.4,185.3 87.952,187.068C87.504,188.836 86.768,190.664 85.744,192.552L84.4,192Z" style="fill-rule:nonzero;"/>
                    </g>
                </g>
            </g>
        </g>
    </g>
    <g transform="matrix(1,0,0,1,173.888,-4)">
        <g>
            <path d="M277.555,42.776L280.077,42.776L280.077,60.38L277.231,60.38L277.231,48.744L272.586,57.533L270.439,57.533L265.769,48.869L265.794,60.38L262.948,60.38L262.948,42.776L265.495,42.776L271.537,54.287L277.555,42.776Z" style="fill-rule:nonzero;"/>
            <path d="M287.281,59.506C286.024,58.774 285.055,57.725 284.372,56.36C283.69,54.995 283.348,53.397 283.348,51.566C283.348,49.734 283.685,48.14 284.36,46.784C285.034,45.427 286.004,44.382 287.269,43.65C288.534,42.917 290.024,42.551 291.738,42.551C293.453,42.551 294.939,42.917 296.196,43.65C297.452,44.382 298.418,45.427 299.092,46.784C299.766,48.14 300.103,49.734 300.103,51.566C300.103,53.397 299.762,54.995 299.08,56.36C298.397,57.725 297.427,58.774 296.171,59.506C294.914,60.239 293.436,60.605 291.738,60.605C290.024,60.605 288.538,60.239 287.281,59.506ZM295.521,56.36C296.429,55.244 296.882,53.646 296.882,51.566C296.882,49.485 296.429,47.891 295.521,46.784C294.614,45.677 293.353,45.123 291.738,45.123C290.107,45.123 288.838,45.677 287.93,46.784C287.023,47.891 286.569,49.485 286.569,51.566C286.569,53.646 287.023,55.244 287.93,56.36C288.838,57.475 290.107,58.033 291.738,58.033C293.353,58.033 294.614,57.475 295.521,56.36Z" style="fill-rule:nonzero;"/>
            <path d="M305.522,60.055C304.34,59.689 303.341,59.173 302.525,58.507L303.599,56.16C304.448,56.809 305.343,57.284 306.283,57.583C307.224,57.883 308.244,58.033 309.342,58.033C310.558,58.033 311.494,57.821 312.151,57.396C312.809,56.972 313.138,56.376 313.138,55.611C313.138,54.945 312.834,54.437 312.226,54.088C311.619,53.738 310.607,53.405 309.193,53.089C307.728,52.772 306.537,52.406 305.622,51.99C304.706,51.574 304.015,51.041 303.549,50.392C303.083,49.743 302.85,48.919 302.85,47.92C302.85,46.888 303.133,45.964 303.699,45.148C304.265,44.332 305.064,43.696 306.096,43.238C307.128,42.78 308.319,42.551 309.667,42.551C310.899,42.551 312.072,42.739 313.188,43.113C314.303,43.488 315.219,44 315.934,44.649L314.861,46.996C313.296,45.747 311.565,45.123 309.667,45.123C308.535,45.123 307.64,45.352 306.983,45.81C306.325,46.268 305.996,46.904 305.996,47.72C305.996,48.403 306.288,48.927 306.87,49.293C307.453,49.659 308.443,50.001 309.842,50.317C311.323,50.65 312.526,51.02 313.45,51.428C314.374,51.836 315.081,52.356 315.572,52.989C316.063,53.621 316.309,54.42 316.309,55.386C316.309,56.435 316.03,57.354 315.473,58.145C314.915,58.936 314.107,59.543 313.05,59.968C311.993,60.392 310.749,60.605 309.317,60.605C307.969,60.605 306.704,60.422 305.522,60.055Z" style="fill-rule:nonzero;"/>
            <path d="M322.886,60.38L322.886,45.423L317.142,45.423L317.142,42.776L331.85,42.776L331.85,45.423L326.107,45.423L326.107,60.38L322.886,60.38Z" style="fill-rule:nonzero;"/>
            <path d="M343.803,42.776L351.494,42.776C353.375,42.776 354.84,43.246 355.889,44.187C356.938,45.127 357.462,46.447 357.462,48.145C357.462,49.843 356.938,51.166 355.889,52.115C354.84,53.064 353.375,53.538 351.494,53.538L347.024,53.538L347.024,60.38L343.803,60.38L343.803,42.776ZM351.095,51.066C353.309,51.066 354.416,50.101 354.416,48.17C354.416,47.187 354.141,46.459 353.592,45.985C353.042,45.51 352.21,45.273 351.095,45.273L347.024,45.273L347.024,51.066L351.095,51.066Z" style="fill-rule:nonzero;"/>
            <path d="M363.559,59.506C362.302,58.774 361.333,57.725 360.65,56.36C359.967,54.995 359.626,53.397 359.626,51.566C359.626,49.734 359.963,48.14 360.638,46.784C361.312,45.427 362.281,44.382 363.547,43.65C364.812,42.917 366.302,42.551 368.016,42.551C369.731,42.551 371.217,42.917 372.473,43.65C373.73,44.382 374.696,45.427 375.37,46.784C376.044,48.14 376.381,49.734 376.381,51.566C376.381,53.397 376.04,54.995 375.357,56.36C374.675,57.725 373.705,58.774 372.448,59.506C371.192,60.239 369.714,60.605 368.016,60.605C366.302,60.605 364.816,60.239 363.559,59.506ZM371.799,56.36C372.706,55.244 373.16,53.646 373.16,51.566C373.16,49.485 372.706,47.891 371.799,46.784C370.892,45.677 369.631,45.123 368.016,45.123C366.385,45.123 365.115,45.677 364.208,46.784C363.301,47.891 362.847,49.485 362.847,51.566C362.847,53.646 363.301,55.244 364.208,56.36C365.115,57.475 366.385,58.033 368.016,58.033C369.631,58.033 370.892,57.475 371.799,56.36Z" style="fill-rule:nonzero;"/>
            <path d="M379.627,42.776L387.318,42.776C389.199,42.776 390.664,43.246 391.713,44.187C392.762,45.127 393.286,46.447 393.286,48.145C393.286,49.843 392.762,51.166 391.713,52.115C390.664,53.064 389.199,53.538 387.318,53.538L382.849,53.538L382.849,60.38L379.627,60.38L379.627,42.776ZM386.919,51.066C389.133,51.066 390.24,50.101 390.24,48.17C390.24,47.187 389.965,46.459 389.416,45.985C388.866,45.51 388.034,45.273 386.919,45.273L382.849,45.273L382.849,51.066L386.919,51.066Z" style="fill-rule:nonzero;"/>
            <path d="M397.881,58.732C396.632,57.483 396.008,55.661 396.008,53.263L396.008,42.776L399.154,42.776L399.154,53.438C399.154,54.953 399.512,56.098 400.228,56.872C400.944,57.646 401.992,58.033 403.374,58.033C404.739,58.033 405.779,57.642 406.495,56.859C407.211,56.077 407.569,54.936 407.569,53.438L407.569,42.776L410.715,42.776L410.715,53.263C410.715,55.644 410.091,57.463 408.843,58.719C407.594,59.976 405.771,60.605 403.374,60.605C400.96,60.605 399.129,59.98 397.881,58.732Z" style="fill-rule:nonzero;"/>
            <path d="M414.411,60.38L414.411,42.776L417.632,42.776L417.632,57.733L425.847,57.733L425.847,60.38L414.411,60.38Z" style="fill-rule:nonzero;"/>
            <path d="M441.512,60.38L439.739,56.26L431.175,56.26L429.402,60.38L426.156,60.38L434.121,42.776L436.743,42.776L444.708,60.38L441.512,60.38ZM432.223,53.763L438.666,53.763L435.445,46.272L432.223,53.763Z" style="fill-rule:nonzero;"/>
            <path d="M461.339,60.38L457.843,60.38L454.821,54.762C454.538,54.229 454.189,53.854 453.773,53.638C453.356,53.422 452.832,53.313 452.2,53.313L449.752,53.313L449.752,60.38L446.581,60.38L446.581,42.776L454.372,42.776C456.37,42.776 457.889,43.221 458.929,44.112C459.969,45.003 460.49,46.288 460.49,47.97C460.49,49.318 460.111,50.429 459.353,51.303C458.596,52.177 457.527,52.747 456.145,53.014C457.077,53.263 457.826,53.921 458.392,54.986L461.339,60.38ZM456.594,50.155C457.16,49.697 457.443,48.994 457.443,48.045C457.443,47.079 457.16,46.376 456.594,45.935C456.028,45.494 455.138,45.273 453.922,45.273L449.727,45.273L449.727,50.841L453.922,50.841C455.138,50.841 456.028,50.612 456.594,50.155Z" style="fill-rule:nonzero;"/>
            <path d="M473.692,60.38L473.692,42.776L476.913,42.776L476.913,57.733L485.128,57.733L485.128,60.38L473.692,60.38Z" style="fill-rule:nonzero;"/>
            <path d="M500.793,60.38L499.02,56.26L490.455,56.26L488.682,60.38L485.436,60.38L493.402,42.776L496.024,42.776L503.989,60.38L500.793,60.38ZM491.504,53.763L497.946,53.763L494.725,46.272L491.504,53.763Z" style="fill-rule:nonzero;"/>
            <path d="M507.746,60.055C506.564,59.689 505.566,59.173 504.75,58.507L505.824,56.16C506.673,56.809 507.567,57.284 508.508,57.583C509.448,57.883 510.468,58.033 511.567,58.033C512.782,58.033 513.718,57.821 514.376,57.396C515.033,56.972 515.362,56.376 515.362,55.611C515.362,54.945 515.058,54.437 514.451,54.088C513.843,53.738 512.832,53.405 511.417,53.089C509.952,52.772 508.762,52.406 507.846,51.99C506.931,51.574 506.24,51.041 505.774,50.392C505.308,49.743 505.074,48.919 505.074,47.92C505.074,46.888 505.357,45.964 505.923,45.148C506.489,44.332 507.289,43.696 508.321,43.238C509.353,42.78 510.543,42.551 511.891,42.551C513.123,42.551 514.297,42.739 515.412,43.113C516.527,43.488 517.443,44 518.159,44.649L517.085,46.996C515.52,45.747 513.789,45.123 511.891,45.123C510.759,45.123 509.865,45.352 509.207,45.81C508.55,46.268 508.221,46.904 508.221,47.72C508.221,48.403 508.512,48.927 509.095,49.293C509.677,49.659 510.668,50.001 512.066,50.317C513.548,50.65 514.75,51.02 515.674,51.428C516.598,51.836 517.306,52.356 517.797,52.989C518.288,53.621 518.533,54.42 518.533,55.386C518.533,56.435 518.255,57.354 517.697,58.145C517.139,58.936 516.332,59.543 515.275,59.968C514.218,60.392 512.973,60.605 511.542,60.605C510.193,60.605 508.928,60.422 507.746,60.055Z" style="fill-rule:nonzero;"/>
            <path d="M525.11,60.38L525.11,45.423L519.367,45.423L519.367,42.776L534.074,42.776L534.074,45.423L528.331,45.423L528.331,60.38L525.11,60.38Z" style="fill-rule:nonzero;"/>
            <path d="M560.685,42.776L563.207,42.776L563.207,60.38L560.361,60.38L560.361,48.744L555.716,57.533L553.569,57.533L548.899,48.869L548.924,60.38L546.078,60.38L546.078,42.776L548.625,42.776L554.667,54.287L560.685,42.776Z" style="fill-rule:nonzero;"/>
            <path d="M567.028,60.38L567.028,42.776L578.814,42.776L578.814,45.323L570.174,45.323L570.174,50.167L578.314,50.167L578.314,52.689L570.174,52.689L570.174,57.833L578.814,57.833L578.814,60.38L567.028,60.38Z" style="fill-rule:nonzero;"/>
            <path d="M594.762,60.38L592.989,56.26L584.424,56.26L582.651,60.38L579.405,60.38L587.371,42.776L589.993,42.776L597.958,60.38L594.762,60.38ZM585.473,53.763L591.915,53.763L588.694,46.272L585.473,53.763Z" style="fill-rule:nonzero;"/>
            <path d="M599.831,60.38L599.831,42.776L603.052,42.776L603.052,57.733L611.267,57.733L611.267,60.38L599.831,60.38Z" style="fill-rule:nonzero;"/>
            <path d="M615.394,60.055C614.212,59.689 613.213,59.173 612.397,58.507L613.471,56.16C614.32,56.809 615.215,57.284 616.155,57.583C617.096,57.883 618.116,58.033 619.214,58.033C620.429,58.033 621.366,57.821 622.023,57.396C622.681,56.972 623.01,56.376 623.01,55.611C623.01,54.945 622.706,54.437 622.098,54.088C621.491,53.738 620.479,53.405 619.064,53.089C617.6,52.772 616.409,52.406 615.494,51.99C614.578,51.574 613.887,51.041 613.421,50.392C612.955,49.743 612.722,48.919 612.722,47.92C612.722,46.888 613.005,45.964 613.571,45.148C614.137,44.332 614.936,43.696 615.968,43.238C617,42.78 618.19,42.551 619.539,42.551C620.771,42.551 621.944,42.739 623.06,43.113C624.175,43.488 625.091,44 625.806,44.649L624.733,46.996C623.168,45.747 621.437,45.123 619.539,45.123C618.407,45.123 617.512,45.352 616.855,45.81C616.197,46.268 615.868,46.904 615.868,47.72C615.868,48.403 616.16,48.927 616.742,49.293C617.325,49.659 618.315,50.001 619.714,50.317C621.195,50.65 622.398,51.02 623.322,51.428C624.246,51.836 624.953,52.356 625.444,52.989C625.935,53.621 626.181,54.42 626.181,55.386C626.181,56.435 625.902,57.354 625.344,58.145C624.787,58.936 623.979,59.543 622.922,59.968C621.865,60.392 620.621,60.605 619.189,60.605C617.841,60.605 616.576,60.422 615.394,60.055Z" style="fill-rule:nonzero;"/>
            <rect x="638.908" y="42.776" width="3.221" height="17.604" style="fill-rule:nonzero;"/>
            <path d="M657.761,42.776L660.782,42.776L660.782,60.38L658.36,60.38L648.921,48.095L648.921,60.38L645.925,60.38L645.925,42.776L648.322,42.776L657.761,55.036L657.761,42.776Z" style="fill-rule:nonzero;"/>
            <path d="M678.479,60.38L678.479,45.423L672.736,45.423L672.736,42.776L687.443,42.776L687.443,45.423L681.7,45.423L681.7,60.38L678.479,60.38Z" style="fill-rule:nonzero;"/>
            <path d="M689.641,60.38L689.641,42.776L701.426,42.776L701.426,45.323L692.787,45.323L692.787,50.167L700.927,50.167L700.927,52.689L692.787,52.689L692.787,57.833L701.426,57.833L701.426,60.38L689.641,60.38Z" style="fill-rule:nonzero;"/>
            <path d="M712.311,51.441L719.003,60.38L715.258,60.38L710.488,53.788L705.694,60.38L701.949,60.38L708.666,51.416L702.198,42.776L705.944,42.776L710.488,49.093L715.058,42.776L718.803,42.776L712.311,51.441Z" style="fill-rule:nonzero;"/>
            <path d="M733.595,60.38L731.822,56.26L723.257,56.26L721.485,60.38L718.238,60.38L726.204,42.776L728.826,42.776L736.791,60.38L733.595,60.38ZM724.306,53.763L730.749,53.763L727.527,46.272L724.306,53.763Z" style="fill-rule:nonzero;"/>
            <path d="M740.548,60.055C739.367,59.689 738.368,59.173 737.552,58.507L738.626,56.16C739.475,56.809 740.37,57.284 741.31,57.583C742.251,57.883 743.27,58.033 744.369,58.033C745.584,58.033 746.521,57.821 747.178,57.396C747.836,56.972 748.164,56.376 748.164,55.611C748.164,54.945 747.861,54.437 747.253,54.088C746.645,53.738 745.634,53.405 744.219,53.089C742.754,52.772 741.564,52.406 740.648,51.99C739.733,51.574 739.042,51.041 738.576,50.392C738.11,49.743 737.877,48.919 737.877,47.92C737.877,46.888 738.16,45.964 738.726,45.148C739.292,44.332 740.091,43.696 741.123,43.238C742.155,42.78 743.345,42.551 744.694,42.551C745.925,42.551 747.099,42.739 748.214,43.113C749.33,43.488 750.245,44 750.961,44.649L749.887,46.996C748.323,45.747 746.591,45.123 744.694,45.123C743.562,45.123 742.667,45.352 742.009,45.81C741.352,46.268 741.023,46.904 741.023,47.72C741.023,48.403 741.314,48.927 741.897,49.293C742.48,49.659 743.47,50.001 744.868,50.317C746.35,50.65 747.553,51.02 748.477,51.428C749.4,51.836 750.108,52.356 750.599,52.989C751.09,53.621 751.336,54.42 751.336,55.386C751.336,56.435 751.057,57.354 750.499,58.145C749.941,58.936 749.134,59.543 748.077,59.968C747.02,60.392 745.776,60.605 744.344,60.605C742.996,60.605 741.73,60.422 740.548,60.055Z" style="fill-rule:nonzero;"/>
            <path d="M303.404,95.67C303.03,94.197 302.844,92.68 302.844,91.12C302.844,89.56 303.03,88.047 303.404,86.58C303.777,85.113 304.39,83.587 305.244,82L306.364,82.46C305.697,84.033 305.22,85.52 304.934,86.92C304.647,88.32 304.504,89.72 304.504,91.12C304.504,92.52 304.647,93.92 304.934,95.32C305.22,96.72 305.697,98.207 306.364,99.78L305.244,100.24C304.39,98.667 303.777,97.143 303.404,95.67Z" style="fill-rule:nonzero;"/>
            <path d="M312.784,96.88L311.604,96.2L319.944,81.78L321.124,82.46L312.784,96.88ZM309.064,89.65C308.464,88.923 308.164,87.847 308.164,86.42C308.164,85.007 308.464,83.937 309.064,83.21C309.664,82.483 310.497,82.12 311.564,82.12C312.63,82.12 313.464,82.483 314.064,83.21C314.664,83.937 314.964,85.007 314.964,86.42C314.964,87.847 314.664,88.923 314.064,89.65C313.464,90.377 312.63,90.74 311.564,90.74C310.497,90.74 309.664,90.377 309.064,89.65ZM313.014,88.82C313.327,88.313 313.484,87.513 313.484,86.42C313.484,85.34 313.327,84.547 313.014,84.04C312.7,83.533 312.217,83.28 311.564,83.28C310.91,83.28 310.424,83.533 310.104,84.04C309.784,84.547 309.624,85.34 309.624,86.42C309.624,87.513 309.784,88.313 310.104,88.82C310.424,89.327 310.91,89.58 311.564,89.58C312.217,89.58 312.7,89.327 313.014,88.82ZM318.664,95.43C318.064,94.703 317.764,93.627 317.764,92.2C317.764,90.787 318.064,89.717 318.664,88.99C319.264,88.263 320.097,87.9 321.164,87.9C322.244,87.9 323.08,88.26 323.674,88.98C324.267,89.7 324.564,90.773 324.564,92.2C324.564,93.627 324.267,94.703 323.674,95.43C323.08,96.157 322.244,96.52 321.164,96.52C320.097,96.52 319.264,96.157 318.664,95.43ZM322.634,94.61C322.947,94.11 323.104,93.307 323.104,92.2C323.104,91.12 322.944,90.327 322.624,89.82C322.304,89.313 321.817,89.06 321.164,89.06C320.51,89.06 320.027,89.313 319.714,89.82C319.4,90.327 319.244,91.12 319.244,92.2C319.244,93.293 319.4,94.093 319.714,94.6C320.027,95.107 320.51,95.36 321.164,95.36C321.83,95.36 322.32,95.11 322.634,94.61Z" style="fill-rule:nonzero;"/>
            <path d="M335.362,95.783C334.561,95.297 333.945,94.606 333.514,93.711C333.083,92.816 332.867,91.76 332.867,90.544C332.867,89.317 333.08,88.254 333.505,87.353C333.931,86.452 334.544,85.761 335.346,85.281C336.147,84.8 337.095,84.559 338.189,84.559C339.283,84.559 340.231,84.8 341.032,85.281C341.833,85.761 342.447,86.452 342.872,87.353C343.298,88.254 343.511,89.312 343.511,90.528C343.511,91.743 343.295,92.802 342.864,93.703C342.433,94.603 341.817,95.297 341.016,95.783C340.214,96.269 339.272,96.513 338.189,96.513C337.106,96.513 336.163,96.269 335.362,95.783ZM341.082,94.1C341.773,93.266 342.118,92.075 342.118,90.528C342.118,88.98 341.775,87.792 341.09,86.963C340.405,86.134 339.438,85.72 338.189,85.72C336.951,85.72 335.987,86.137 335.296,86.972C334.605,87.806 334.26,88.991 334.26,90.528C334.26,92.064 334.605,93.252 335.296,94.092C335.987,94.932 336.951,95.352 338.189,95.352C339.427,95.352 340.391,94.935 341.082,94.1Z" style="fill-rule:nonzero;"/>
            <path d="M345.964,96.38L345.964,84.692L353.193,84.692L353.193,85.836L347.307,85.836L347.307,89.865L352.861,89.865L352.861,91.008L347.307,91.008L347.307,96.38L345.964,96.38Z" style="fill-rule:nonzero;"/>
            <path d="M361.391,84.692L365.32,84.692C367.188,84.692 368.633,85.198 369.655,86.209C370.677,87.22 371.189,88.66 371.189,90.528C371.189,92.396 370.677,93.838 369.655,94.855C368.633,95.872 367.188,96.38 365.32,96.38L361.391,96.38L361.391,84.692ZM365.237,95.219C368.265,95.219 369.779,93.656 369.779,90.528C369.779,87.411 368.265,85.853 365.237,85.853L362.75,85.853L362.75,95.219L365.237,95.219Z" style="fill-rule:nonzero;"/>
            <path d="M373.642,96.38L373.642,84.692L381.036,84.692L381.036,85.819L374.985,85.819L374.985,89.881L380.705,89.881L380.705,91.008L374.985,91.008L374.985,95.253L381.036,95.253L381.036,96.38L373.642,96.38Z" style="fill-rule:nonzero;"/>
            <path d="M383.291,96.38L383.291,84.692L390.519,84.692L390.519,85.836L384.634,85.836L384.634,89.865L390.188,89.865L390.188,91.008L384.634,91.008L384.634,96.38L383.291,96.38Z" style="fill-rule:nonzero;"/>
            <path d="M392.525,96.38L392.525,84.692L399.92,84.692L399.92,85.819L393.868,85.819L393.868,89.881L399.588,89.881L399.588,91.008L393.868,91.008L393.868,95.253L399.92,95.253L399.92,96.38L392.525,96.38Z" style="fill-rule:nonzero;"/>
            <path d="M410.265,84.692L411.541,84.692L411.541,96.38L410.497,96.38L403.451,86.98L403.451,96.38L402.174,96.38L402.174,84.692L403.219,84.692L410.265,94.092L410.265,84.692Z" style="fill-rule:nonzero;"/>
            <path d="M414.426,84.692L418.355,84.692C420.223,84.692 421.668,85.198 422.69,86.209C423.713,87.22 424.224,88.66 424.224,90.528C424.224,92.396 423.713,93.838 422.69,94.855C421.668,95.872 420.223,96.38 418.355,96.38L414.426,96.38L414.426,84.692ZM418.272,95.219C421.301,95.219 422.815,93.656 422.815,90.528C422.815,87.411 421.301,85.853 418.272,85.853L415.785,85.853L415.785,95.219L418.272,95.219Z" style="fill-rule:nonzero;"/>
            <path d="M435.23,96.38L433.936,93.379L427.835,93.379L426.542,96.38L425.15,96.38L430.289,84.692L431.466,84.692L436.606,96.38L435.23,96.38ZM428.316,92.252L433.456,92.252L430.886,86.267L428.316,92.252Z" style="fill-rule:nonzero;"/>
            <path d="M446.437,84.692L447.713,84.692L447.713,96.38L446.669,96.38L439.623,86.98L439.623,96.38L438.346,96.38L438.346,84.692L439.391,84.692L446.437,94.092L446.437,84.692Z" style="fill-rule:nonzero;"/>
            <path d="M453.416,96.38L453.416,85.853L449.355,85.853L449.355,84.692L458.871,84.692L458.871,85.853L454.792,85.853L454.792,96.38L453.416,96.38Z" style="fill-rule:nonzero;"/>
            <path d="M459.273,95.037L459.803,93.993C460.378,94.479 460.967,94.827 461.569,95.037C462.171,95.247 462.871,95.352 463.666,95.352C464.606,95.352 465.33,95.17 465.838,94.805C466.347,94.44 466.601,93.926 466.601,93.263C466.601,92.876 466.479,92.561 466.236,92.318C465.993,92.075 465.672,91.882 465.274,91.738C464.877,91.594 464.341,91.445 463.666,91.29C462.76,91.08 462.017,90.859 461.436,90.627C460.856,90.395 460.386,90.064 460.027,89.632C459.668,89.201 459.488,88.638 459.488,87.941C459.488,87.278 459.663,86.69 460.011,86.176C460.359,85.662 460.856,85.264 461.503,84.982C462.149,84.7 462.898,84.559 463.749,84.559C464.556,84.559 465.31,84.686 466.012,84.941C466.714,85.195 467.308,85.56 467.794,86.035L467.28,87.079C466.728,86.604 466.167,86.259 465.598,86.043C465.029,85.828 464.412,85.72 463.749,85.72C462.843,85.72 462.133,85.911 461.619,86.292C461.105,86.673 460.848,87.206 460.848,87.892C460.848,88.477 461.075,88.92 461.528,89.218C461.981,89.516 462.666,89.771 463.583,89.981C464.589,90.224 465.379,90.448 465.954,90.652C466.529,90.857 467.007,91.163 467.388,91.572C467.77,91.981 467.96,92.528 467.96,93.213C467.96,93.877 467.786,94.457 467.438,94.954C467.09,95.452 466.59,95.836 465.938,96.106C465.286,96.377 464.523,96.513 463.65,96.513C461.826,96.513 460.367,96.021 459.273,95.037Z" style="fill-rule:nonzero;"/>
            <path d="M491.278,84.692L492.604,84.692L488.526,96.38L487.365,96.38L484.033,86.814L480.701,96.38L479.557,96.38L475.462,84.692L476.838,84.692L480.154,94.457L483.552,84.692L484.58,84.709L487.929,94.473L491.278,84.692Z" style="fill-rule:nonzero;"/>
            <path d="M502.949,84.692L504.292,84.692L504.292,96.38L502.949,96.38L502.949,91.025L495.953,91.025L495.953,96.38L494.61,96.38L494.61,84.692L495.953,84.692L495.953,89.865L502.949,89.865L502.949,84.692Z" style="fill-rule:nonzero;"/>
            <path d="M509.241,95.783C508.44,95.297 507.824,94.606 507.393,93.711C506.961,92.816 506.746,91.76 506.746,90.544C506.746,89.317 506.959,88.254 507.384,87.353C507.81,86.452 508.423,85.761 509.224,85.281C510.026,84.8 510.974,84.559 512.068,84.559C513.162,84.559 514.11,84.8 514.911,85.281C515.712,85.761 516.326,86.452 516.751,87.353C517.177,88.254 517.39,89.312 517.39,90.528C517.39,91.743 517.174,92.802 516.743,93.703C516.312,94.603 515.696,95.297 514.894,95.783C514.093,96.269 513.151,96.513 512.068,96.513C510.985,96.513 510.042,96.269 509.241,95.783ZM514.961,94.1C515.652,93.266 515.997,92.075 515.997,90.528C515.997,88.98 515.654,87.792 514.969,86.963C514.284,86.134 513.317,85.72 512.068,85.72C510.83,85.72 509.866,86.137 509.175,86.972C508.484,87.806 508.139,88.991 508.139,90.528C508.139,92.064 508.484,93.252 509.175,94.092C509.866,94.932 510.83,95.352 512.068,95.352C513.306,95.352 514.27,94.935 514.961,94.1Z" style="fill-rule:nonzero;"/>
            <path d="M528.099,95.783C527.298,95.297 526.682,94.606 526.251,93.711C525.82,92.816 525.604,91.76 525.604,90.544C525.604,89.317 525.817,88.254 526.242,87.353C526.668,86.452 527.281,85.761 528.083,85.281C528.884,84.8 529.832,84.559 530.926,84.559C532.02,84.559 532.968,84.8 533.769,85.281C534.57,85.761 535.184,86.452 535.609,87.353C536.035,88.254 536.248,89.312 536.248,90.528C536.248,91.743 536.032,92.802 535.601,93.703C535.17,94.603 534.554,95.297 533.753,95.783C532.951,96.269 532.009,96.513 530.926,96.513C529.843,96.513 528.901,96.269 528.099,95.783ZM533.819,94.1C534.51,93.266 534.855,92.075 534.855,90.528C534.855,88.98 534.512,87.792 533.827,86.963C533.142,86.134 532.175,85.72 530.926,85.72C529.688,85.72 528.724,86.137 528.033,86.972C527.342,87.806 526.997,88.991 526.997,90.528C526.997,92.064 527.342,93.252 528.033,94.092C528.724,94.932 529.688,95.352 530.926,95.352C532.164,95.352 533.128,94.935 533.819,94.1Z" style="fill-rule:nonzero;"/>
            <path d="M547.903,96.38L546.41,96.38L544.421,92.633C544.178,92.18 543.893,91.868 543.567,91.697C543.241,91.525 542.796,91.44 542.233,91.44L540.044,91.44L540.044,96.38L538.701,96.38L538.701,84.692L543.509,84.692C544.78,84.692 545.75,84.974 546.419,85.538C547.087,86.101 547.422,86.93 547.422,88.024C547.422,88.931 547.165,89.663 546.651,90.221C546.137,90.779 545.405,91.13 544.454,91.274C544.753,91.362 545.015,91.511 545.242,91.721C545.468,91.931 545.675,92.213 545.863,92.567L547.903,96.38ZM543.393,90.312C544.299,90.312 544.976,90.124 545.424,89.749C545.872,89.373 546.095,88.804 546.095,88.041C546.095,87.289 545.874,86.731 545.432,86.366C544.99,86.002 544.31,85.819 543.393,85.819L540.044,85.819L540.044,90.312L543.393,90.312Z" style="fill-rule:nonzero;"/>
            <path d="M550.074,84.692L554.003,84.692C555.871,84.692 557.316,85.198 558.339,86.209C559.361,87.22 559.872,88.66 559.872,90.528C559.872,92.396 559.361,93.838 558.339,94.855C557.316,95.872 555.871,96.38 554.003,96.38L550.074,96.38L550.074,84.692ZM553.921,95.219C556.949,95.219 558.463,93.656 558.463,90.528C558.463,87.411 556.949,85.853 553.921,85.853L551.434,85.853L551.434,95.219L553.921,95.219Z" style="fill-rule:nonzero;"/>
            <path d="M562.326,96.38L562.326,84.692L569.72,84.692L569.72,85.819L563.669,85.819L563.669,89.881L569.389,89.881L569.389,91.008L563.669,91.008L563.669,95.253L569.72,95.253L569.72,96.38L562.326,96.38Z" style="fill-rule:nonzero;"/>
            <path d="M581.176,96.38L579.684,96.38L577.694,92.633C577.451,92.18 577.167,91.868 576.841,91.697C576.515,91.525 576.07,91.44 575.506,91.44L573.318,91.44L573.318,96.38L571.975,96.38L571.975,84.692L576.783,84.692C578.054,84.692 579.024,84.974 579.692,85.538C580.361,86.101 580.695,86.93 580.695,88.024C580.695,88.931 580.438,89.663 579.924,90.221C579.41,90.779 578.678,91.13 577.728,91.274C578.026,91.362 578.289,91.511 578.515,91.721C578.742,91.931 578.949,92.213 579.137,92.567L581.176,96.38ZM576.667,90.312C577.573,90.312 578.25,90.124 578.697,89.749C579.145,89.373 579.369,88.804 579.369,88.041C579.369,87.289 579.148,86.731 578.706,86.366C578.264,86.002 577.584,85.819 576.667,85.819L573.318,85.819L573.318,90.312L576.667,90.312Z" style="fill-rule:nonzero;"/>
            <path d="M583.348,96.38L583.348,84.692L590.742,84.692L590.742,85.819L584.691,85.819L584.691,89.881L590.41,89.881L590.41,91.008L584.691,91.008L584.691,95.253L590.742,95.253L590.742,96.38L583.348,96.38Z" style="fill-rule:nonzero;"/>
            <path d="M592.997,84.692L596.926,84.692C598.794,84.692 600.239,85.198 601.261,86.209C602.283,87.22 602.795,88.66 602.795,90.528C602.795,92.396 602.283,93.838 601.261,94.855C600.239,95.872 598.794,96.38 596.926,96.38L592.997,96.38L592.997,84.692ZM596.843,95.219C599.871,95.219 601.385,93.656 601.385,90.528C601.385,87.411 599.871,85.853 596.843,85.853L594.356,85.853L594.356,95.219L596.843,95.219Z" style="fill-rule:nonzero;"/>
            <path d="M614.259,96.38L614.259,85.853L610.197,85.853L610.197,84.692L619.713,84.692L619.713,85.853L615.635,85.853L615.635,96.38L614.259,96.38Z" style="fill-rule:nonzero;"/>
            <path d="M629.693,84.692L631.036,84.692L631.036,96.38L629.693,96.38L629.693,91.025L622.697,91.025L622.697,96.38L621.354,96.38L621.354,84.692L622.697,84.692L622.697,89.865L629.693,89.865L629.693,84.692Z" style="fill-rule:nonzero;"/>
            <path d="M633.921,96.38L633.921,84.692L641.315,84.692L641.315,85.819L635.264,85.819L635.264,89.881L640.984,89.881L640.984,91.008L635.264,91.008L635.264,95.253L641.315,95.253L641.315,96.38L633.921,96.38Z" style="fill-rule:nonzero;"/>
            <path d="M642.667,95.037L643.197,93.993C643.772,94.479 644.361,94.827 644.963,95.037C645.565,95.247 646.264,95.352 647.06,95.352C648,95.352 648.723,95.17 649.232,94.805C649.74,94.44 649.995,93.926 649.995,93.263C649.995,92.876 649.873,92.561 649.63,92.318C649.387,92.075 649.066,91.882 648.668,91.738C648.27,91.594 647.734,91.445 647.06,91.29C646.154,91.08 645.411,90.859 644.83,90.627C644.25,90.395 643.78,90.064 643.421,89.632C643.062,89.201 642.882,88.638 642.882,87.941C642.882,87.278 643.056,86.69 643.404,86.176C643.753,85.662 644.25,85.264 644.897,84.982C645.543,84.7 646.292,84.559 647.143,84.559C647.95,84.559 648.704,84.686 649.406,84.941C650.108,85.195 650.702,85.56 651.188,86.035L650.674,87.079C650.122,86.604 649.561,86.259 648.992,86.043C648.422,85.828 647.806,85.72 647.143,85.72C646.237,85.72 645.527,85.911 645.013,86.292C644.499,86.673 644.242,87.206 644.242,87.892C644.242,88.477 644.468,88.92 644.921,89.218C645.375,89.516 646.06,89.771 646.977,89.981C647.983,90.224 648.773,90.448 649.348,90.652C649.923,90.857 650.401,91.163 650.782,91.572C651.163,91.981 651.354,92.528 651.354,93.213C651.354,93.877 651.18,94.457 650.832,94.954C650.484,95.452 649.983,95.836 649.331,96.106C648.679,96.377 647.917,96.513 647.044,96.513C645.22,96.513 643.761,96.021 642.667,95.037Z" style="fill-rule:nonzero;"/>
            <path d="M653.559,96.38L653.559,84.692L660.953,84.692L660.953,85.819L654.902,85.819L654.902,89.881L660.621,89.881L660.621,91.008L654.902,91.008L654.902,95.253L660.953,95.253L660.953,96.38L653.559,96.38Z" style="fill-rule:nonzero;"/>
            <rect x="669.4" y="84.692" width="1.359" height="11.688" style="fill-rule:nonzero;"/>
            <path d="M676.462,96.38L676.462,85.853L672.401,85.853L672.401,84.692L681.917,84.692L681.917,85.853L677.838,85.853L677.838,96.38L676.462,96.38Z" style="fill-rule:nonzero;"/>
            <path d="M683.558,96.38L683.558,84.692L690.952,84.692L690.952,85.819L684.901,85.819L684.901,89.881L690.621,89.881L690.621,91.008L684.901,91.008L684.901,95.253L690.952,95.253L690.952,96.38L683.558,96.38Z" style="fill-rule:nonzero;"/>
            <path d="M703.137,84.692L704.248,84.692L704.248,96.38L703.005,96.38L703.021,87.328L699.225,94.523L698.263,94.523L694.45,87.394L694.467,96.38L693.207,96.38L693.207,84.692L694.334,84.692L698.761,93.164L703.137,84.692Z" style="fill-rule:nonzero;"/>
            <path d="M706.486,95.037L707.017,93.993C707.592,94.479 708.18,94.827 708.783,95.037C709.385,95.247 710.084,95.352 710.88,95.352C711.819,95.352 712.543,95.17 713.052,94.805C713.56,94.44 713.814,93.926 713.814,93.263C713.814,92.876 713.693,92.561 713.449,92.318C713.206,92.075 712.886,91.882 712.488,91.738C712.09,91.594 711.554,91.445 710.88,91.29C709.973,91.08 709.23,90.859 708.65,90.627C708.07,90.395 707.6,90.064 707.241,89.632C706.881,89.201 706.702,88.638 706.702,87.941C706.702,87.278 706.876,86.69 707.224,86.176C707.572,85.662 708.07,85.264 708.716,84.982C709.363,84.7 710.112,84.559 710.963,84.559C711.769,84.559 712.524,84.686 713.226,84.941C713.927,85.195 714.522,85.56 715.008,86.035L714.494,87.079C713.941,86.604 713.38,86.259 712.811,86.043C712.242,85.828 711.626,85.72 710.963,85.72C710.056,85.72 709.346,85.911 708.832,86.292C708.318,86.673 708.061,87.206 708.061,87.892C708.061,88.477 708.288,88.92 708.741,89.218C709.194,89.516 709.879,89.771 710.797,89.981C711.803,90.224 712.593,90.448 713.168,90.652C713.742,90.857 714.22,91.163 714.602,91.572C714.983,91.981 715.174,92.528 715.174,93.213C715.174,93.877 715,94.457 714.651,94.954C714.303,95.452 713.803,95.836 713.151,96.106C712.499,96.377 711.736,96.513 710.863,96.513C709.039,96.513 707.581,96.021 706.486,95.037Z" style="fill-rule:nonzero;"/>
            <path d="M716.636,99.78C717.303,98.207 717.78,96.72 718.066,95.32C718.353,93.92 718.496,92.52 718.496,91.12C718.496,89.72 718.353,88.32 718.066,86.92C717.78,85.52 717.303,84.033 716.636,82.46L717.756,82C718.61,83.587 719.223,85.113 719.596,86.58C719.97,88.047 720.156,89.56 720.156,91.12C720.156,92.68 719.97,94.197 719.596,95.67C719.223,97.143 718.61,98.667 717.756,100.24L716.636,99.78Z" style="fill-rule:nonzero;"/>
        </g>
    </g>
</svg>
