<?xml version="1.0" encoding="UTF-8" standalone="no"?>
<!DOCTYPE svg PUBLIC "-//W3C//DTD SVG 1.1//EN" "http://www.w3.org/Graphics/SVG/1.1/DTD/svg11.dtd">
<svg width="100%" height="100%" viewBox="0 0 1600 900" version="1.1" xmlns="http://www.w3.org/2000/svg" xmlns:xlink="http://www.w3.org/1999/xlink" xml:space="preserve" xmlns:serif="http://www.serif.com/" style="fill-rule:evenodd;clip-rule:evenodd;stroke-linejoin:round;stroke-miterlimit:1.41421;">
    <g transform="matrix(1,0,0,1,-11.5843,-15)">
        <g transform="matrix(1,0,0,1,209,-82)">
            <path d="M483.288,245.736C502.68,263.304 512.376,287.736 512.376,319.032C512.376,350.328 502.968,375.096 484.152,393.336C465.336,411.576 436.536,420.696 397.752,420.696L330.936,420.696L330.936,219.384L400.056,219.384C436.152,219.384 463.896,228.168 483.288,245.736ZM478.104,319.896C478.104,273.816 451.704,250.776 398.904,250.776L364.92,250.776L364.92,388.728L402.648,388.728C427.032,388.728 445.704,382.92 458.664,371.304C471.624,359.688 478.104,342.552 478.104,319.896Z" style="fill-rule:nonzero;"/>
            <path d="M694.104,358.2L574.008,358.2C574.776,369.336 579.864,378.312 589.272,385.128C598.68,391.944 609.432,395.352 621.528,395.352C640.728,395.352 655.32,389.304 665.304,377.208L683.736,397.368C667.224,414.456 645.72,423 619.224,423C597.72,423 579.432,415.848 564.36,401.544C549.288,387.24 541.752,368.04 541.752,343.944C541.752,319.848 549.432,300.696 564.792,286.488C580.152,272.28 598.248,265.176 619.08,265.176C639.912,265.176 657.624,271.464 672.216,284.04C686.808,296.616 694.104,313.944 694.104,336.024L694.104,358.2ZM574.008,332.856L661.848,332.856C661.848,319.992 657.816,310.104 649.752,303.192C641.688,296.28 631.752,292.824 619.944,292.824C608.136,292.824 597.528,296.424 588.12,303.624C578.712,310.824 574.008,320.568 574.008,332.856Z" style="fill-rule:nonzero;"/>
            <path d="M853.656,420.696L824.28,420.696L824.28,400.248C811.608,415.416 794.616,423 773.304,423C757.368,423 744.168,418.488 733.704,409.464C723.24,400.44 718.008,388.392 718.008,373.32C718.008,358.248 723.576,346.968 734.712,339.48C745.848,331.992 760.92,328.248 779.928,328.248L821.688,328.248L821.688,322.488C821.688,302.136 810.36,291.96 787.704,291.96C773.496,291.96 758.712,297.144 743.352,307.512L728.952,287.352C747.576,272.568 768.696,265.176 792.312,265.176C810.36,265.176 825.096,269.736 836.52,278.856C847.944,287.976 853.656,302.328 853.656,321.912L853.656,420.696ZM821.4,363.672L821.4,350.712L785.112,350.712C761.88,350.712 750.264,358.008 750.264,372.6C750.264,380.088 753.144,385.8 758.904,389.736C764.664,393.672 772.68,395.64 782.952,395.64C793.224,395.64 802.2,392.76 809.88,387C817.56,381.24 821.4,373.464 821.4,363.672Z" style="fill-rule:nonzero;"/>
            <path d="M910.392,401.112C895.992,386.52 888.792,367.32 888.792,343.512C888.792,319.704 896.184,300.696 910.968,286.488C925.752,272.28 943.368,265.176 963.816,265.176C984.264,265.176 1000.73,273.816 1013.21,291.096L1013.21,207L1045.46,207L1045.46,420.696L1013.21,420.696L1013.21,397.656C1001.3,414.552 983.928,423 961.08,423C941.688,423 924.792,415.704 910.392,401.112ZM935.16,380.664C944.568,389.88 955.608,394.488 968.28,394.488C980.952,394.488 991.704,389.832 1000.54,380.52C1009.37,371.208 1013.78,359.256 1013.78,344.664C1013.78,330.072 1009.37,317.88 1000.54,308.088C991.704,298.296 980.856,293.4 967.992,293.4C955.128,293.4 944.088,298.296 934.872,308.088C925.656,317.88 921.048,330.12 921.048,344.808C921.048,359.496 925.752,371.448 935.16,380.664Z" style="fill-rule:nonzero;"/>
            <rect x="330.936" y="507.384" width="33.984" height="201.312"/>
            <path d="M447,625.752L447,708.696L414.744,708.696L414.744,555.48L447,555.48L447,583.416C452.184,574.008 459.336,566.616 468.456,561.24C477.576,555.864 487.416,553.176 497.976,553.176C515.256,553.176 529.224,558.456 539.88,569.016C550.536,579.576 555.864,594.84 555.864,614.808L555.864,708.696L523.608,708.696L523.608,624.6C523.608,596.376 511.896,582.264 488.472,582.264C477.336,582.264 467.64,585.96 459.384,593.352C451.128,600.744 447,611.544 447,625.752Z" style="fill-rule:nonzero;"/>
            <path d="M694.104,697.896C683.544,706.632 670.008,711 653.496,711C642.36,711 630.792,708.984 618.792,704.952C606.792,700.92 596.184,695.256 586.968,687.96L602.52,662.904C620.376,676.344 637.656,683.064 654.36,683.064C661.656,683.064 667.416,681.384 671.64,678.024C675.864,674.664 677.976,670.392 677.976,665.208C677.976,657.528 667.8,650.616 647.448,644.472C645.912,643.896 644.76,643.512 643.992,643.32C612.12,634.68 596.184,620.28 596.184,600.12C596.184,585.912 601.704,574.536 612.744,565.992C623.784,557.448 638.136,553.176 655.8,553.176C673.464,553.176 690.168,558.36 705.912,568.728L693.816,592.632C681.336,584.376 667.8,580.248 653.208,580.248C645.528,580.248 639.288,581.64 634.488,584.424C629.688,587.208 627.288,591.384 627.288,596.952C627.288,601.944 629.784,605.592 634.776,607.896C638.232,609.624 643.08,611.256 649.32,612.792C655.56,614.328 661.08,615.864 665.88,617.4C670.68,618.936 675.336,620.664 679.848,622.584C684.36,624.504 689.208,627.192 694.392,630.648C704.76,637.56 709.944,648.312 709.944,662.904C709.944,677.496 704.664,689.16 694.104,697.896Z" style="fill-rule:nonzero;"/>
            <path d="M778.776,708.696L746.52,708.696L746.52,555.48L778.776,555.48L778.776,708.696ZM742.488,510.552C742.488,504.984 744.504,500.184 748.536,496.152C752.568,492.12 757.368,490.104 762.936,490.104C768.504,490.104 773.304,492.12 777.336,496.152C781.368,500.184 783.384,504.984 783.384,510.552C783.384,516.12 781.368,520.92 777.336,524.952C773.304,528.984 768.504,531 762.936,531C757.368,531 752.568,528.984 748.536,524.952C744.504,520.92 742.488,516.12 742.488,510.552Z" style="fill-rule:nonzero;"/>
            <path d="M837.24,689.112C822.84,674.52 815.64,655.32 815.64,631.512C815.64,607.704 823.032,588.696 837.816,574.488C852.6,560.28 870.216,553.176 890.664,553.176C911.112,553.176 927.576,561.816 940.056,579.096L940.056,495L972.312,495L972.312,708.696L940.056,708.696L940.056,685.656C928.152,702.552 910.776,711 887.928,711C868.536,711 851.64,703.704 837.24,689.112ZM862.008,668.664C871.416,677.88 882.456,682.488 895.128,682.488C907.8,682.488 918.552,677.832 927.384,668.52C936.216,659.208 940.632,647.256 940.632,632.664C940.632,618.072 936.216,605.88 927.384,596.088C918.552,586.296 907.704,581.4 894.84,581.4C881.976,581.4 870.936,586.296 861.72,596.088C852.504,605.88 847.896,618.12 847.896,632.808C847.896,647.496 852.6,659.448 862.008,668.664Z" style="fill-rule:nonzero;"/>
            <path d="M1161.53,646.2L1041.43,646.2C1042.2,657.336 1047.29,666.312 1056.7,673.128C1066.1,679.944 1076.86,683.352 1088.95,683.352C1108.15,683.352 1122.74,677.304 1132.73,665.208L1151.16,685.368C1134.65,702.456 1113.14,711 1086.65,711C1065.14,711 1046.86,703.848 1031.78,689.544C1016.71,675.24 1009.18,656.04 1009.18,631.944C1009.18,607.848 1016.86,588.696 1032.22,574.488C1047.58,560.28 1065.67,553.176 1086.5,553.176C1107.34,553.176 1125.05,559.464 1139.64,572.04C1154.23,584.616 1161.53,601.944 1161.53,624.024L1161.53,646.2ZM1041.43,620.856L1129.27,620.856C1129.27,607.992 1125.24,598.104 1117.18,591.192C1109.11,584.28 1099.18,580.824 1087.37,580.824C1075.56,580.824 1064.95,584.424 1055.54,591.624C1046.14,598.824 1041.43,608.568 1041.43,620.856Z" style="fill-rule:nonzero;"/>
        </g>
        <g transform="matrix(1.2605,0,0,1.2605,-125.425,-37.6457)">
            <g transform="matrix(1.66773,0,0,1.66773,107.906,-187.364)">
                <g transform="matrix(1,0,0,1,0,4)">
                    <circle cx="176" cy="224" r="29" style="fill:rgb(243,196,194);"/>
                </g>
                <g transform="matrix(1,0,0,1,-7,-20)">
                    <path d="M231,313C231,299.754 220.246,289 207,289L159,289C145.754,289 135,299.754 135,313L135,376C135,389.246 145.754,400 159,400L207,400C220.246,400 231,389.246 231,376L231,313Z" style="fill:rgb(240,67,58);"/>
                </g>
                <g transform="matrix(1.20833,0,0,1,-36.6667,-31.5)">
                    <path d="M200,370.5C200,362.497 194.623,356 188,356L164,356C157.377,356 152,362.497 152,370.5L152,509.5C152,517.503 157.377,524 164,524L188,524C194.623,524 200,517.503 200,509.5L200,370.5Z" style="fill:rgb(240,67,58);"/>
                </g>
            </g>
            <g transform="matrix(1,0,0,0.565764,0,113.446)">
                <path d="M376.326,261.254L401.426,332L428,261.254L376.326,261.254Z" style="fill:rgb(243,196,194);"/>
            </g>
        </g>
        <g transform="matrix(1,0,0,1,27.5,-33)">
            <g transform="matrix(0.97,0,0,1,15.36,0)">
                <path d="M521.408,730.984L518.048,738.616L512,738.616L526.784,705.064L532.832,705.064L547.616,738.616L541.568,738.616L538.208,730.984L521.408,730.984ZM535.904,725.752L529.808,711.928L523.712,725.752L535.904,725.752Z" style="fill-rule:nonzero;"/>
                <path d="M565.952,735.352C563.552,732.92 562.352,729.72 562.352,725.752C562.352,721.784 563.584,718.616 566.048,716.248C568.512,713.88 571.448,712.696 574.856,712.696C578.264,712.696 581.008,714.136 583.088,717.016L583.088,703L588.464,703L588.464,738.616L583.088,738.616L583.088,734.776C581.104,737.592 578.208,739 574.4,739C571.168,739 568.352,737.784 565.952,735.352ZM570.08,731.944C571.648,733.48 573.488,734.248 575.6,734.248C577.712,734.248 579.504,733.472 580.976,731.92C582.448,730.368 583.184,728.376 583.184,725.944C583.184,723.512 582.448,721.48 580.976,719.848C579.504,718.216 577.696,717.4 575.552,717.4C573.408,717.4 571.568,718.216 570.032,719.848C568.496,721.48 567.728,723.52 567.728,725.968C567.728,728.416 568.512,730.408 570.08,731.944Z" style="fill-rule:nonzero;"/>
                <path d="M619.664,728.2L599.648,728.2C599.776,730.056 600.624,731.552 602.192,732.688C603.76,733.824 605.552,734.392 607.568,734.392C610.768,734.392 613.2,733.384 614.864,731.368L617.936,734.728C615.184,737.576 611.6,739 607.184,739C603.6,739 600.552,737.808 598.04,735.424C595.528,733.04 594.272,729.84 594.272,725.824C594.272,721.808 595.552,718.616 598.112,716.248C600.672,713.88 603.688,712.696 607.16,712.696C610.632,712.696 613.584,713.744 616.016,715.84C618.448,717.936 619.664,720.824 619.664,724.504L619.664,728.2ZM599.648,723.976L614.288,723.976C614.288,721.832 613.616,720.184 612.272,719.032C610.928,717.88 609.272,717.304 607.304,717.304C605.336,717.304 603.568,717.904 602,719.104C600.432,720.304 599.648,721.928 599.648,723.976Z" style="fill-rule:nonzero;"/>
                <path d="M648.992,728.2L628.976,728.2C629.104,730.056 629.952,731.552 631.52,732.688C633.088,733.824 634.88,734.392 636.896,734.392C640.096,734.392 642.528,733.384 644.192,731.368L647.264,734.728C644.512,737.576 640.928,739 636.512,739C632.928,739 629.88,737.808 627.368,735.424C624.856,733.04 623.6,729.84 623.6,725.824C623.6,721.808 624.88,718.616 627.44,716.248C630,713.88 633.016,712.696 636.488,712.696C639.96,712.696 642.912,713.744 645.344,715.84C647.776,717.936 648.992,720.824 648.992,724.504L648.992,728.2ZM628.976,723.976L643.616,723.976C643.616,721.832 642.944,720.184 641.6,719.032C640.256,717.88 638.6,717.304 636.632,717.304C634.664,717.304 632.896,717.904 631.328,719.104C629.76,720.304 628.976,721.928 628.976,723.976Z" style="fill-rule:nonzero;"/>
                <path d="M677.024,716.248C679.456,718.616 680.672,721.768 680.672,725.704C680.672,729.64 679.464,732.84 677.048,735.304C674.632,737.768 671.816,739 668.6,739C665.384,739 662.496,737.592 659.936,734.776L659.936,747.928L654.56,747.928L654.56,713.08L659.936,713.08L659.936,717.544C662.048,714.312 664.816,712.696 668.24,712.696C671.664,712.696 674.592,713.88 677.024,716.248ZM662.048,731.872C663.52,733.424 665.312,734.2 667.424,734.2C669.536,734.2 671.376,733.432 672.944,731.896C674.512,730.36 675.296,728.368 675.296,725.92C675.296,723.472 674.528,721.44 672.992,719.824C671.456,718.208 669.616,717.4 667.472,717.4C665.328,717.4 663.52,718.208 662.048,719.824C660.576,721.44 659.84,723.464 659.84,725.896C659.84,728.328 660.576,730.32 662.048,731.872Z" style="fill-rule:nonzero;"/>
                <rect x="686.048" y="721.768" width="15.936" height="5.04"/>
                <path d="M710.96,735.352C708.56,732.92 707.36,729.72 707.36,725.752C707.36,721.784 708.592,718.616 711.056,716.248C713.52,713.88 716.456,712.696 719.864,712.696C723.272,712.696 726.016,714.136 728.096,717.016L728.096,703L733.472,703L733.472,738.616L728.096,738.616L728.096,734.776C726.112,737.592 723.216,739 719.408,739C716.176,739 713.36,737.784 710.96,735.352ZM715.088,731.944C716.656,733.48 718.496,734.248 720.608,734.248C722.72,734.248 724.512,733.472 725.984,731.92C727.456,730.368 728.192,728.376 728.192,725.944C728.192,723.512 727.456,721.48 725.984,719.848C724.512,718.216 722.704,717.4 720.56,717.4C718.416,717.4 716.576,718.216 715.04,719.848C713.504,721.48 712.736,723.52 712.736,725.968C712.736,728.416 713.52,730.408 715.088,731.944Z" style="fill-rule:nonzero;"/>
                <path d="M746.288,738.616L740.912,738.616L740.912,713.08L746.288,713.08L746.288,738.616ZM740.24,705.592C740.24,704.664 740.576,703.864 741.248,703.192C741.92,702.52 742.72,702.184 743.648,702.184C744.576,702.184 745.376,702.52 746.048,703.192C746.72,703.864 747.056,704.664 747.056,705.592C747.056,706.52 746.72,707.32 746.048,707.992C745.376,708.664 744.576,709 743.648,709C742.72,709 741.92,708.664 741.248,707.992C740.576,707.32 740.24,706.52 740.24,705.592Z" style="fill-rule:nonzero;"/>
                <path d="M760.496,738.616L750.224,713.08L755.792,713.08L763.568,732.376L771.344,713.08L776.912,713.08L766.64,738.616L760.496,738.616Z" style="fill-rule:nonzero;"/>
                <path d="M804.608,728.2L784.592,728.2C784.72,730.056 785.568,731.552 787.136,732.688C788.704,733.824 790.496,734.392 792.512,734.392C795.712,734.392 798.144,733.384 799.808,731.368L802.88,734.728C800.128,737.576 796.544,739 792.128,739C788.544,739 785.496,737.808 782.984,735.424C780.472,733.04 779.216,729.84 779.216,725.824C779.216,721.808 780.496,718.616 783.056,716.248C785.616,713.88 788.632,712.696 792.104,712.696C795.576,712.696 798.528,713.744 800.96,715.84C803.392,717.936 804.608,720.824 804.608,724.504L804.608,728.2ZM784.592,723.976L799.232,723.976C799.232,721.832 798.56,720.184 797.216,719.032C795.872,717.88 794.216,717.304 792.248,717.304C790.28,717.304 788.512,717.904 786.944,719.104C785.376,720.304 784.592,721.928 784.592,723.976Z" style="fill-rule:nonzero;"/>
                <path d="M828.368,738.616L822.992,738.616L822.992,713.08L828.368,713.08L828.368,738.616ZM822.32,705.592C822.32,704.664 822.656,703.864 823.328,703.192C824,702.52 824.8,702.184 825.728,702.184C826.656,702.184 827.456,702.52 828.128,703.192C828.8,703.864 829.136,704.664 829.136,705.592C829.136,706.52 828.8,707.32 828.128,707.992C827.456,708.664 826.656,709 825.728,709C824.8,709 824,708.664 823.328,707.992C822.656,707.32 822.32,706.52 822.32,705.592Z" style="fill-rule:nonzero;"/>
                <path d="M841.184,724.792L841.184,738.616L835.808,738.616L835.808,713.08L841.184,713.08L841.184,717.736C842.048,716.168 843.24,714.936 844.76,714.04C846.28,713.144 847.92,712.696 849.68,712.696C852.56,712.696 854.888,713.576 856.664,715.336C858.44,717.096 859.328,719.64 859.328,722.968L859.328,738.616L853.952,738.616L853.952,724.6C853.952,719.896 852,717.544 848.096,717.544C846.24,717.544 844.624,718.16 843.248,719.392C841.872,720.624 841.184,722.424 841.184,724.792Z" style="fill-rule:nonzero;"/>
                <path d="M872.758,717.4L872.758,730.36C872.758,731.576 873.078,732.544 873.718,733.264C874.358,733.984 875.254,734.344 876.406,734.344C877.558,734.344 878.662,733.784 879.718,732.664L881.926,736.456C880.038,738.152 877.95,739 875.662,739C873.374,739 871.422,738.208 869.806,736.624C868.19,735.04 867.382,732.904 867.382,730.216L867.382,717.4L864.166,717.4L864.166,713.08L867.382,713.08L867.382,705.064L872.758,705.064L872.758,713.08L879.478,713.08L879.478,717.4L872.758,717.4Z" style="fill-rule:nonzero;"/>
                <path d="M897.424,734.2C899.76,734.2 901.688,733.424 903.208,731.872C904.728,730.32 905.488,728.312 905.488,725.848C905.488,723.384 904.728,721.376 903.208,719.824C901.688,718.272 899.76,717.496 897.424,717.496C895.088,717.496 893.16,718.272 891.64,719.824C890.12,721.376 889.36,723.384 889.36,725.848C889.36,728.312 890.12,730.32 891.64,731.872C893.16,733.424 895.088,734.2 897.424,734.2ZM897.424,739C893.584,739 890.384,737.728 887.824,735.184C885.264,732.64 883.984,729.528 883.984,725.848C883.984,722.168 885.264,719.056 887.824,716.512C890.384,713.968 893.584,712.696 897.424,712.696C901.264,712.696 904.464,713.968 907.024,716.512C909.584,719.056 910.864,722.168 910.864,725.848C910.864,729.528 909.584,732.64 907.024,735.184C904.464,737.728 901.264,739 897.424,739Z" style="fill-rule:nonzero;"/>
                <path d="M936.064,717.4L936.064,730.36C936.064,731.576 936.384,732.544 937.024,733.264C937.664,733.984 938.56,734.344 939.712,734.344C940.864,734.344 941.968,733.784 943.024,732.664L945.232,736.456C943.344,738.152 941.256,739 938.968,739C936.68,739 934.728,738.208 933.112,736.624C931.496,735.04 930.688,732.904 930.688,730.216L930.688,717.4L927.472,717.4L927.472,713.08L930.688,713.08L930.688,705.064L936.064,705.064L936.064,713.08L942.784,713.08L942.784,717.4L936.064,717.4Z" style="fill-rule:nonzero;"/>
                <path d="M954.544,724.792L954.544,738.616L949.168,738.616L949.168,703.048L954.544,703.048L954.544,717.736C955.312,716.168 956.472,714.936 958.024,714.04C959.576,713.144 961.248,712.696 963.04,712.696C965.92,712.696 968.248,713.576 970.024,715.336C971.8,717.096 972.688,719.64 972.688,722.968L972.688,738.616L967.312,738.616L967.312,724.6C967.312,719.896 965.36,717.544 961.456,717.544C959.6,717.544 957.984,718.16 956.608,719.392C955.232,720.624 954.544,722.424 954.544,724.792Z" style="fill-rule:nonzero;"/>
                <path d="M1003.6,728.2L983.584,728.2C983.712,730.056 984.56,731.552 986.128,732.688C987.696,733.824 989.488,734.392 991.504,734.392C994.704,734.392 997.136,733.384 998.8,731.368L1001.87,734.728C999.12,737.576 995.536,739 991.12,739C987.536,739 984.488,737.808 981.976,735.424C979.464,733.04 978.208,729.84 978.208,725.824C978.208,721.808 979.488,718.616 982.048,716.248C984.608,713.88 987.624,712.696 991.096,712.696C994.568,712.696 997.52,713.744 999.952,715.84C1002.38,717.936 1003.6,720.824 1003.6,724.504L1003.6,728.2ZM983.584,723.976L998.224,723.976C998.224,721.832 997.552,720.184 996.208,719.032C994.864,717.88 993.208,717.304 991.24,717.304C989.272,717.304 987.504,717.904 985.936,719.104C984.368,720.304 983.584,721.928 983.584,723.976Z" style="fill-rule:nonzero;"/>
                <path d="M1036.53,733.624C1039.15,733.624 1041.23,732.728 1042.77,730.936C1044.3,729.144 1045.07,726.712 1045.07,723.64L1045.07,705.064L1050.74,705.064L1050.74,723.88C1050.74,728.712 1049.41,732.432 1046.75,735.04C1044.1,737.648 1040.69,738.952 1036.53,738.952C1032.37,738.952 1028.96,737.648 1026.3,735.04C1023.65,732.432 1022.32,728.712 1022.32,723.88L1022.32,705.064L1027.98,705.064L1027.98,723.64C1027.98,726.712 1028.75,729.144 1030.29,730.936C1031.82,732.728 1033.9,733.624 1036.53,733.624Z" style="fill-rule:nonzero;"/>
                <path d="M1057,735.4C1057,734.408 1057.34,733.568 1058.03,732.88C1058.72,732.192 1059.56,731.848 1060.55,731.848C1061.54,731.848 1062.39,732.192 1063.1,732.88C1063.8,733.568 1064.15,734.408 1064.15,735.4C1064.15,736.392 1063.8,737.24 1063.1,737.944C1062.39,738.648 1061.54,739 1060.55,739C1059.56,739 1058.72,738.648 1058.03,737.944C1057.34,737.24 1057,736.392 1057,735.4Z" style="fill-rule:nonzero;"/>
                <path d="M1077.69,710.488C1076.63,711.16 1076.1,712.176 1076.1,713.536C1076.1,714.896 1076.63,715.936 1077.69,716.656C1078.74,717.376 1080.99,718.152 1084.43,718.984C1087.87,719.816 1090.46,720.984 1092.21,722.488C1093.95,723.992 1094.82,726.208 1094.82,729.136C1094.82,732.064 1093.72,734.44 1091.51,736.264C1089.3,738.088 1086.41,739 1082.82,739C1077.58,739 1072.92,737.192 1068.86,733.576L1072.41,729.304C1075.8,732.248 1079.32,733.72 1082.97,733.72C1084.79,733.72 1086.24,733.328 1087.31,732.544C1088.38,731.76 1088.92,730.72 1088.92,729.424C1088.92,728.128 1088.42,727.12 1087.41,726.4C1086.4,725.68 1084.66,725.024 1082.2,724.432C1079.74,723.84 1077.86,723.296 1076.58,722.8C1075.3,722.304 1074.17,721.656 1073.18,720.856C1071.19,719.352 1070.2,717.048 1070.2,713.944C1070.2,710.84 1071.33,708.448 1073.58,706.768C1075.84,705.088 1078.63,704.248 1081.96,704.248C1084.1,704.248 1086.23,704.6 1088.34,705.304C1090.46,706.008 1092.28,707 1093.82,708.28L1090.79,712.552C1089.8,711.656 1088.46,710.92 1086.76,710.344C1085.06,709.768 1083.39,709.48 1081.74,709.48C1080.1,709.48 1078.74,709.816 1077.69,710.488Z" style="fill-rule:nonzero;"/>
                <path d="M1115.51,735.352C1113.11,732.92 1111.91,729.72 1111.91,725.752C1111.91,721.784 1113.14,718.616 1115.61,716.248C1118.07,713.88 1121.01,712.696 1124.42,712.696C1127.82,712.696 1130.57,714.136 1132.65,717.016L1132.65,703L1138.02,703L1138.02,738.616L1132.65,738.616L1132.65,734.776C1130.66,737.592 1127.77,739 1123.96,739C1120.73,739 1117.91,737.784 1115.51,735.352ZM1119.64,731.944C1121.21,733.48 1123.05,734.248 1125.16,734.248C1127.27,734.248 1129.06,733.472 1130.54,731.92C1132.01,730.368 1132.74,728.376 1132.74,725.944C1132.74,723.512 1132.01,721.48 1130.54,719.848C1129.06,718.216 1127.26,717.4 1125.11,717.4C1122.97,717.4 1121.13,718.216 1119.59,719.848C1118.06,721.48 1117.29,723.52 1117.29,725.968C1117.29,728.416 1118.07,730.408 1119.64,731.944Z" style="fill-rule:nonzero;"/>
                <path d="M1169.22,728.2L1149.21,728.2C1149.34,730.056 1150.18,731.552 1151.75,732.688C1153.32,733.824 1155.11,734.392 1157.13,734.392C1160.33,734.392 1162.76,733.384 1164.42,731.368L1167.5,734.728C1164.74,737.576 1161.16,739 1156.74,739C1153.16,739 1150.11,737.808 1147.6,735.424C1145.09,733.04 1143.83,729.84 1143.83,725.824C1143.83,721.808 1145.11,718.616 1147.67,716.248C1150.23,713.88 1153.25,712.696 1156.72,712.696C1160.19,712.696 1163.14,713.744 1165.58,715.84C1168.01,717.936 1169.22,720.824 1169.22,724.504L1169.22,728.2ZM1149.21,723.976L1163.85,723.976C1163.85,721.832 1163.18,720.184 1161.83,719.032C1160.49,717.88 1158.83,717.304 1156.86,717.304C1154.9,717.304 1153.13,717.904 1151.56,719.104C1149.99,720.304 1149.21,721.928 1149.21,723.976Z" style="fill-rule:nonzero;"/>
                <path d="M1195.48,738.616L1190.58,738.616L1190.58,735.208C1188.47,737.736 1185.64,739 1182.09,739C1179.43,739 1177.23,738.248 1175.49,736.744C1173.74,735.24 1172.87,733.232 1172.87,730.72C1172.87,728.208 1173.8,726.328 1175.66,725.08C1177.51,723.832 1180.02,723.208 1183.19,723.208L1190.15,723.208L1190.15,722.248C1190.15,718.856 1188.26,717.16 1184.49,717.16C1182.12,717.16 1179.66,718.024 1177.1,719.752L1174.7,716.392C1177.8,713.928 1181.32,712.696 1185.26,712.696C1188.26,712.696 1190.72,713.456 1192.62,714.976C1194.53,716.496 1195.48,718.888 1195.48,722.152L1195.48,738.616ZM1190.1,729.112L1190.1,726.952L1184.06,726.952C1180.18,726.952 1178.25,728.168 1178.25,730.6C1178.25,731.848 1178.73,732.8 1179.69,733.456C1180.65,734.112 1181.98,734.44 1183.7,734.44C1185.41,734.44 1186.9,733.96 1188.18,733C1189.46,732.04 1190.1,730.744 1190.1,729.112Z" style="fill-rule:nonzero;"/>
                <path d="M1208.96,717.4L1208.96,730.36C1208.96,731.576 1209.28,732.544 1209.92,733.264C1210.56,733.984 1211.45,734.344 1212.61,734.344C1213.76,734.344 1214.86,733.784 1215.92,732.664L1218.13,736.456C1216.24,738.152 1214.15,739 1211.86,739C1209.58,739 1207.62,738.208 1206.01,736.624C1204.39,735.04 1203.58,732.904 1203.58,730.216L1203.58,717.4L1200.37,717.4L1200.37,713.08L1203.58,713.08L1203.58,705.064L1208.96,705.064L1208.96,713.08L1215.68,713.08L1215.68,717.4L1208.96,717.4Z" style="fill-rule:nonzero;"/>
                <path d="M1227.44,724.792L1227.44,738.616L1222.06,738.616L1222.06,703.048L1227.44,703.048L1227.44,717.736C1228.21,716.168 1229.37,714.936 1230.92,714.04C1232.47,713.144 1234.14,712.696 1235.93,712.696C1238.82,712.696 1241.14,713.576 1242.92,715.336C1244.69,717.096 1245.58,719.64 1245.58,722.968L1245.58,738.616L1240.21,738.616L1240.21,724.6C1240.21,719.896 1238.26,717.544 1234.35,717.544C1232.5,717.544 1230.88,718.16 1229.5,719.392C1228.13,720.624 1227.44,722.424 1227.44,724.792Z" style="fill-rule:nonzero;"/>
                <path d="M1278.94,718.12C1276.29,718.12 1274.29,718.984 1272.94,720.712C1271.6,722.44 1270.93,724.76 1270.93,727.672L1270.93,738.616L1265.55,738.616L1265.55,713.08L1270.93,713.08L1270.93,718.216C1271.79,716.616 1272.97,715.304 1274.45,714.28C1275.94,713.256 1277.52,712.728 1279.18,712.696L1279.23,718.12C1279.13,718.12 1279.04,718.12 1278.94,718.12Z" style="fill-rule:nonzero;"/>
                <path d="M1295.54,734.2C1297.87,734.2 1299.8,733.424 1301.32,731.872C1302.84,730.32 1303.6,728.312 1303.6,725.848C1303.6,723.384 1302.84,721.376 1301.32,719.824C1299.8,718.272 1297.87,717.496 1295.54,717.496C1293.2,717.496 1291.27,718.272 1289.75,719.824C1288.23,721.376 1287.47,723.384 1287.47,725.848C1287.47,728.312 1288.23,730.32 1289.75,731.872C1291.27,733.424 1293.2,734.2 1295.54,734.2ZM1295.54,739C1291.7,739 1288.5,737.728 1285.94,735.184C1283.38,732.64 1282.1,729.528 1282.1,725.848C1282.1,722.168 1283.38,719.056 1285.94,716.512C1288.5,713.968 1291.7,712.696 1295.54,712.696C1299.38,712.696 1302.58,713.968 1305.14,716.512C1307.7,719.056 1308.98,722.168 1308.98,725.848C1308.98,729.528 1307.7,732.64 1305.14,735.184C1302.58,737.728 1299.38,739 1295.54,739Z" style="fill-rule:nonzero;"/>
                <path d="M1326.34,738.616L1320.2,738.616L1311.37,713.08L1316.93,713.08L1323.27,732.376L1329.61,713.08L1335.17,713.08L1341.51,732.376L1347.85,713.08L1353.41,713.08L1344.58,738.616L1338.44,738.616L1332.39,721.144L1326.34,738.616Z" style="fill-rule:nonzero;"/>
            </g>
            <g transform="matrix(0.97,0,0,1,15.36,0)">
                <path d="M522.512,763.4L522.512,776.36C522.512,777.576 522.832,778.544 523.472,779.264C524.112,779.984 525.008,780.344 526.16,780.344C527.312,780.344 528.416,779.784 529.472,778.664L531.68,782.456C529.792,784.152 527.704,785 525.416,785C523.128,785 521.176,784.208 519.56,782.624C517.944,781.04 517.136,778.904 517.136,776.216L517.136,763.4L513.92,763.4L513.92,759.08L517.136,759.08L517.136,751.064L522.512,751.064L522.512,759.08L529.232,759.08L529.232,763.4L522.512,763.4Z" style="fill-rule:nonzero;"/>
                <path d="M540.992,770.792L540.992,784.616L535.616,784.616L535.616,749.048L540.992,749.048L540.992,763.736C541.76,762.168 542.92,760.936 544.472,760.04C546.024,759.144 547.696,758.696 549.488,758.696C552.368,758.696 554.696,759.576 556.472,761.336C558.248,763.096 559.136,765.64 559.136,768.968L559.136,784.616L553.76,784.616L553.76,770.6C553.76,765.896 551.808,763.544 547.904,763.544C546.048,763.544 544.432,764.16 543.056,765.392C541.68,766.624 540.992,768.424 540.992,770.792Z" style="fill-rule:nonzero;"/>
                <path d="M579.68,764.12C577.024,764.12 575.024,764.984 573.68,766.712C572.336,768.44 571.664,770.76 571.664,773.672L571.664,784.616L566.288,784.616L566.288,759.08L571.664,759.08L571.664,764.216C572.528,762.616 573.704,761.304 575.192,760.28C576.68,759.256 578.256,758.728 579.92,758.696L579.968,764.12C579.872,764.12 579.776,764.12 579.68,764.12Z" style="fill-rule:nonzero;"/>
                <path d="M596.273,780.2C598.609,780.2 600.537,779.424 602.057,777.872C603.577,776.32 604.337,774.312 604.337,771.848C604.337,769.384 603.577,767.376 602.057,765.824C600.537,764.272 598.609,763.496 596.273,763.496C593.937,763.496 592.009,764.272 590.489,765.824C588.969,767.376 588.209,769.384 588.209,771.848C588.209,774.312 588.969,776.32 590.489,777.872C592.009,779.424 593.937,780.2 596.273,780.2ZM596.273,785C592.433,785 589.233,783.728 586.673,781.184C584.113,778.64 582.833,775.528 582.833,771.848C582.833,768.168 584.113,765.056 586.673,762.512C589.233,759.968 592.433,758.696 596.273,758.696C600.113,758.696 603.313,759.968 605.873,762.512C608.433,765.056 609.713,768.168 609.713,771.848C609.713,775.528 608.433,778.64 605.873,781.184C603.313,783.728 600.113,785 596.273,785Z" style="fill-rule:nonzero;"/>
                <path d="M633.329,772.904L633.329,759.08L638.705,759.08L638.705,784.616L633.329,784.616L633.329,779.96C632.465,781.528 631.273,782.76 629.753,783.656C628.233,784.552 626.593,785 624.833,785C621.953,785 619.625,784.12 617.849,782.36C616.073,780.6 615.185,778.056 615.185,774.728L615.185,759.08L620.561,759.08L620.561,773.096C620.561,777.8 622.513,780.152 626.417,780.152C628.273,780.152 629.889,779.536 631.265,778.304C632.641,777.072 633.329,775.272 633.329,772.904Z" style="fill-rule:nonzero;"/>
                <path d="M669.761,759.08L669.761,781.352C669.761,785.864 668.537,789.248 666.089,791.504C663.641,793.76 660.497,794.888 656.657,794.888C652.817,794.888 649.345,793.688 646.241,791.288L648.785,787.208C651.281,789.096 653.801,790.04 656.345,790.04C658.889,790.04 660.905,789.384 662.393,788.072C663.881,786.76 664.625,784.664 664.625,781.784L664.625,778.52C663.825,780.024 662.681,781.224 661.193,782.12C659.705,783.016 658.033,783.464 656.177,783.464C652.785,783.464 650.001,782.28 647.825,779.912C645.649,777.544 644.561,774.6 644.561,771.08C644.561,767.56 645.649,764.616 647.825,762.248C650.001,759.88 652.777,758.696 656.153,758.696C659.529,758.696 662.273,760.088 664.385,762.872L664.385,759.08L669.761,759.08ZM651.785,776.288C653.081,777.808 654.825,778.568 657.017,778.568C659.209,778.568 660.985,777.832 662.345,776.36C663.705,774.888 664.385,773.056 664.385,770.864C664.385,768.672 663.697,766.816 662.321,765.296C660.945,763.776 659.169,763.016 656.993,763.016C654.817,763.016 653.081,763.8 651.785,765.368C650.489,766.936 649.841,768.768 649.841,770.864C649.841,772.96 650.489,774.768 651.785,776.288Z" style="fill-rule:nonzero;"/>
                <path d="M682.577,770.792L682.577,784.616L677.201,784.616L677.201,749.048L682.577,749.048L682.577,763.736C683.345,762.168 684.505,760.936 686.057,760.04C687.609,759.144 689.281,758.696 691.073,758.696C693.953,758.696 696.281,759.576 698.057,761.336C699.833,763.096 700.721,765.64 700.721,768.968L700.721,784.616L695.345,784.616L695.345,770.6C695.345,765.896 693.393,763.544 689.489,763.544C687.633,763.544 686.017,764.16 684.641,765.392C683.265,766.624 682.577,768.424 682.577,770.792Z" style="fill-rule:nonzero;"/>
                <g transform="matrix(1,0,0,1,-19.5876,0)">
                    <path d="M747.041,763.4L747.041,776.36C747.041,777.576 747.361,778.544 748.001,779.264C748.641,779.984 749.537,780.344 750.689,780.344C751.841,780.344 752.945,779.784 754.001,778.664L756.209,782.456C754.321,784.152 752.233,785 749.945,785C747.657,785 745.705,784.208 744.089,782.624C742.473,781.04 741.665,778.904 741.665,776.216L741.665,763.4L738.449,763.4L738.449,759.08L741.665,759.08L741.665,751.064L747.041,751.064L747.041,759.08L753.761,759.08L753.761,763.4L747.041,763.4Z" style="fill-rule:nonzero;"/>
                </g>
                <g transform="matrix(1,0,0,1,-18.5567,0)">
                    <path d="M765.521,770.792L765.521,784.616L760.145,784.616L760.145,749.048L765.521,749.048L765.521,763.736C766.289,762.168 767.449,760.936 769.001,760.04C770.553,759.144 772.225,758.696 774.017,758.696C776.897,758.696 779.225,759.576 781.001,761.336C782.777,763.096 783.665,765.64 783.665,768.968L783.665,784.616L778.289,784.616L778.289,770.6C778.289,765.896 776.337,763.544 772.433,763.544C770.577,763.544 768.961,764.16 767.585,765.392C766.209,766.624 765.521,768.424 765.521,770.792Z" style="fill-rule:nonzero;"/>
                </g>
                <g transform="matrix(1,0,0,1,-18.5567,0)">
                    <path d="M814.577,774.2L794.561,774.2C794.689,776.056 795.537,777.552 797.105,778.688C798.673,779.824 800.465,780.392 802.481,780.392C805.681,780.392 808.113,779.384 809.777,777.368L812.849,780.728C810.097,783.576 806.513,785 802.097,785C798.513,785 795.465,783.808 792.953,781.424C790.441,779.04 789.185,775.84 789.185,771.824C789.185,767.808 790.465,764.616 793.025,762.248C795.585,759.88 798.601,758.696 802.073,758.696C805.545,758.696 808.497,759.744 810.929,761.84C813.361,763.936 814.577,766.824 814.577,770.504L814.577,774.2ZM794.561,769.976L809.201,769.976C809.201,767.832 808.529,766.184 807.185,765.032C805.841,763.88 804.185,763.304 802.217,763.304C800.249,763.304 798.481,763.904 796.913,765.104C795.345,766.304 794.561,767.928 794.561,769.976Z" style="fill-rule:nonzero;"/>
                </g>
                <g transform="matrix(1,0,0,1,-18.5567,0)">
                    <rect x="832.961" y="749" width="5.376" height="35.616"/>
                </g>
                <g transform="matrix(1,0,0,1,-18.5567,0)">
                    <path d="M869.537,774.2L849.521,774.2C849.649,776.056 850.497,777.552 852.065,778.688C853.633,779.824 855.425,780.392 857.441,780.392C860.641,780.392 863.073,779.384 864.737,777.368L867.809,780.728C865.057,783.576 861.473,785 857.057,785C853.473,785 850.425,783.808 847.913,781.424C845.401,779.04 844.145,775.84 844.145,771.824C844.145,767.808 845.425,764.616 847.985,762.248C850.545,759.88 853.561,758.696 857.033,758.696C860.505,758.696 863.457,759.744 865.889,761.84C868.321,763.936 869.537,766.824 869.537,770.504L869.537,774.2ZM849.521,769.976L864.161,769.976C864.161,767.832 863.489,766.184 862.145,765.032C860.801,763.88 859.145,763.304 857.177,763.304C855.209,763.304 853.441,763.904 851.873,765.104C850.305,766.304 849.521,767.928 849.521,769.976Z" style="fill-rule:nonzero;"/>
                </g>
                <g transform="matrix(1,0,0,1,-18.5567,0)">
                    <path d="M880.481,770.792L880.481,784.616L875.105,784.616L875.105,759.08L880.481,759.08L880.481,763.736C881.345,762.168 882.537,760.936 884.057,760.04C885.577,759.144 887.217,758.696 888.977,758.696C891.857,758.696 894.185,759.576 895.961,761.336C897.737,763.096 898.625,765.64 898.625,768.968L898.625,784.616L893.249,784.616L893.249,770.6C893.249,765.896 891.297,763.544 887.393,763.544C885.537,763.544 883.921,764.16 882.545,765.392C881.169,766.624 880.481,768.424 880.481,770.792Z" style="fill-rule:nonzero;"/>
                </g>
                <g transform="matrix(1,0,0,1,-18.5567,0)">
                    <path d="M921.329,782.816C919.569,784.272 917.313,785 914.561,785C912.705,785 910.777,784.664 908.777,783.992C906.777,783.32 905.009,782.376 903.473,781.16L906.065,776.984C909.041,779.224 911.921,780.344 914.705,780.344C915.921,780.344 916.881,780.064 917.585,779.504C918.289,778.944 918.641,778.232 918.641,777.368C918.641,776.088 916.945,774.936 913.553,773.912C913.297,773.816 913.105,773.752 912.977,773.72C907.665,772.28 905.009,769.88 905.009,766.52C905.009,764.152 905.929,762.256 907.769,760.832C909.609,759.408 912.001,758.696 914.945,758.696C917.889,758.696 920.673,759.56 923.297,761.288L921.281,765.272C919.201,763.896 916.945,763.208 914.513,763.208C913.233,763.208 912.193,763.44 911.393,763.904C910.593,764.368 910.193,765.064 910.193,765.992C910.193,766.824 910.609,767.432 911.441,767.816C912.017,768.104 912.825,768.376 913.865,768.632C914.905,768.888 915.825,769.144 916.625,769.4C917.425,769.656 918.201,769.944 918.953,770.264C919.705,770.584 920.513,771.032 921.377,771.608C923.105,772.76 923.969,774.552 923.969,776.984C923.969,779.416 923.089,781.36 921.329,782.816Z" style="fill-rule:nonzero;"/>
                </g>
                <g transform="matrix(1,0,0,1,-18.5567,0)">
                    <path d="M953.489,774.2L933.473,774.2C933.601,776.056 934.449,777.552 936.017,778.688C937.585,779.824 939.377,780.392 941.393,780.392C944.593,780.392 947.025,779.384 948.689,777.368L951.761,780.728C949.009,783.576 945.425,785 941.009,785C937.425,785 934.377,783.808 931.865,781.424C929.353,779.04 928.097,775.84 928.097,771.824C928.097,767.808 929.377,764.616 931.937,762.248C934.497,759.88 937.513,758.696 940.985,758.696C944.457,758.696 947.409,759.744 949.841,761.84C952.273,763.936 953.489,766.824 953.489,770.504L953.489,774.2ZM933.473,769.976L948.113,769.976C948.113,767.832 947.441,766.184 946.097,765.032C944.753,763.88 943.097,763.304 941.129,763.304C939.161,763.304 937.393,763.904 935.825,765.104C934.257,766.304 933.473,767.928 933.473,769.976Z" style="fill-rule:nonzero;"/>
                </g>
                <g transform="matrix(1,0,0,1,-18.5567,0)">
                    <path d="M983.633,780.2C985.969,780.2 987.897,779.424 989.417,777.872C990.937,776.32 991.697,774.312 991.697,771.848C991.697,769.384 990.937,767.376 989.417,765.824C987.897,764.272 985.969,763.496 983.633,763.496C981.297,763.496 979.369,764.272 977.849,765.824C976.329,767.376 975.569,769.384 975.569,771.848C975.569,774.312 976.329,776.32 977.849,777.872C979.369,779.424 981.297,780.2 983.633,780.2ZM983.633,785C979.793,785 976.593,783.728 974.033,781.184C971.473,778.64 970.193,775.528 970.193,771.848C970.193,768.168 971.473,765.056 974.033,762.512C976.593,759.968 979.793,758.696 983.633,758.696C987.473,758.696 990.673,759.968 993.233,762.512C995.793,765.056 997.073,768.168 997.073,771.848C997.073,775.528 995.793,778.64 993.233,781.184C990.673,783.728 987.473,785 983.633,785Z" style="fill-rule:nonzero;"/>
                </g>
                <g transform="matrix(1,0,0,1,-18.5567,0)">
                    <path d="M1009.06,756.968L1009.06,759.08L1015.78,759.08L1015.78,763.4L1009.06,763.4L1009.06,784.616L1003.69,784.616L1003.69,763.4L1000.47,763.4L1000.47,759.08L1003.69,759.08L1003.69,757.112C1003.69,754.424 1004.49,752.288 1006.11,750.704C1007.73,749.12 1009.68,748.328 1011.97,748.328C1014.25,748.328 1016.34,749.176 1018.23,750.872L1016.02,754.664C1014.97,753.544 1013.86,752.984 1012.71,752.984C1011.56,752.984 1010.66,753.344 1010.02,754.064C1009.38,754.784 1009.06,755.752 1009.06,756.968Z" style="fill-rule:nonzero;"/>
                </g>
                <g transform="matrix(1,0,0,1,-18.5567,0)">
                    <path d="M1035.41,781.352C1033.01,778.92 1031.81,775.72 1031.81,771.752C1031.81,767.784 1033.05,764.616 1035.51,762.248C1037.97,759.88 1040.91,758.696 1044.32,758.696C1047.72,758.696 1050.47,760.136 1052.55,763.016L1052.55,749L1057.92,749L1057.92,784.616L1052.55,784.616L1052.55,780.776C1050.57,783.592 1047.67,785 1043.86,785C1040.63,785 1037.81,783.784 1035.41,781.352ZM1039.54,777.944C1041.11,779.48 1042.95,780.248 1045.06,780.248C1047.17,780.248 1048.96,779.472 1050.44,777.92C1051.91,776.368 1052.64,774.376 1052.64,771.944C1052.64,769.512 1051.91,767.48 1050.44,765.848C1048.96,764.216 1047.16,763.4 1045.01,763.4C1042.87,763.4 1041.03,764.216 1039.49,765.848C1037.96,767.48 1037.19,769.52 1037.19,771.968C1037.19,774.416 1037.97,776.408 1039.54,777.944Z" style="fill-rule:nonzero;"/>
                </g>
                <g transform="matrix(1,0,0,1,-18.5567,0)">
                    <path d="M1086.05,784.616L1081.16,784.616L1081.16,781.208C1079.05,783.736 1076.21,785 1072.66,785C1070.01,785 1067.81,784.248 1066.06,782.744C1064.32,781.24 1063.44,779.232 1063.44,776.72C1063.44,774.208 1064.37,772.328 1066.23,771.08C1068.09,769.832 1070.6,769.208 1073.77,769.208L1080.72,769.208L1080.72,768.248C1080.72,764.856 1078.84,763.16 1075.06,763.16C1072.69,763.16 1070.23,764.024 1067.67,765.752L1065.27,762.392C1068.37,759.928 1071.89,758.696 1075.83,758.696C1078.84,758.696 1081.29,759.456 1083.2,760.976C1085.1,762.496 1086.05,764.888 1086.05,768.152L1086.05,784.616ZM1080.68,775.112L1080.68,772.952L1074.63,772.952C1070.76,772.952 1068.82,774.168 1068.82,776.6C1068.82,777.848 1069.3,778.8 1070.26,779.456C1071.22,780.112 1072.56,780.44 1074.27,780.44C1075.98,780.44 1077.48,779.96 1078.76,779C1080.04,778.04 1080.68,776.744 1080.68,775.112Z" style="fill-rule:nonzero;"/>
                </g>
                <g transform="matrix(1,0,0,1,-18.5567,0)">
                    <path d="M1099.53,763.4L1099.53,776.36C1099.53,777.576 1099.85,778.544 1100.49,779.264C1101.13,779.984 1102.03,780.344 1103.18,780.344C1104.33,780.344 1105.44,779.784 1106.49,778.664L1108.7,782.456C1106.81,784.152 1104.72,785 1102.44,785C1100.15,785 1098.2,784.208 1096.58,782.624C1094.96,781.04 1094.16,778.904 1094.16,776.216L1094.16,763.4L1090.94,763.4L1090.94,759.08L1094.16,759.08L1094.16,751.064L1099.53,751.064L1099.53,759.08L1106.25,759.08L1106.25,763.4L1099.53,763.4Z" style="fill-rule:nonzero;"/>
                </g>
                <g transform="matrix(1,0,0,1,-18.5567,0)">
                    <path d="M1133.32,784.616L1128.43,784.616L1128.43,781.208C1126.32,783.736 1123.48,785 1119.93,785C1117.28,785 1115.08,784.248 1113.33,782.744C1111.59,781.24 1110.72,779.232 1110.72,776.72C1110.72,774.208 1111.64,772.328 1113.5,771.08C1115.36,769.832 1117.87,769.208 1121.04,769.208L1128,769.208L1128,768.248C1128,764.856 1126.11,763.16 1122.33,763.16C1119.96,763.16 1117.5,764.024 1114.94,765.752L1112.54,762.392C1115.64,759.928 1119.16,758.696 1123.1,758.696C1126.11,758.696 1128.56,759.456 1130.47,760.976C1132.37,762.496 1133.32,764.888 1133.32,768.152L1133.32,784.616ZM1127.95,775.112L1127.95,772.952L1121.9,772.952C1118.03,772.952 1116.09,774.168 1116.09,776.6C1116.09,777.848 1116.57,778.8 1117.53,779.456C1118.49,780.112 1119.83,780.44 1121.54,780.44C1123.25,780.44 1124.75,779.96 1126.03,779C1127.31,778.04 1127.95,776.744 1127.95,775.112Z" style="fill-rule:nonzero;"/>
                </g>
            </g>
        </g>
        <g transform="matrix(1,0,0,29.3803,-346.331,-11813.3)">
            <rect x="539.5" y="407" width="33.5" height="21"/>
        </g>
        <g transform="matrix(1,0,0,29.3803,-210.552,-11813.3)">
            <rect x="539.5" y="407" width="33.5" height="21"/>
        </g>
        <g transform="matrix(1,0,0,29.3803,-74.7732,-11813.3)">
            <rect x="539.5" y="407" width="33.5" height="21"/>
        </g>
    </g>
</svg>
